Blocksync-CondensedBlack.ufo
<glyph name="quotesingle" format="2">
  <advance width="217"/>
  <unicode hex="0027"/>
  <outline>
    <contour>
      <point x="126" y="480" type="line" smooth="yes"/>
      <point x="160" y="480"/>
      <point x="165" y="491"/>
      <point x="171" y="526" type="curve" smooth="yes"/>
      <point x="173" y="529"/>
      <point x="194" y="660"/>
      <point x="194" y="686" type="curve" smooth="yes"/>
      <point x="194" y="754" type="line" smooth="yes"/>
      <point x="194" y="789"/>
      <point x="183" y="800"/>
      <point x="149" y="800" type="curve" smooth="yes"/>
      <point x="69" y="800" type="line" smooth="yes"/>
      <point x="34" y="800"/>
      <point x="23" y="789"/>
      <point x="23" y="754" type="curve" smooth="yes"/>
      <point x="23" y="686" type="line" smooth="yes"/>
      <point x="23" y="660"/>
      <point x="45" y="530"/>
      <point x="46" y="526" type="curve" smooth="yes"/>
      <point x="50" y="491"/>
      <point x="57" y="480"/>
      <point x="91" y="480" type="curve" smooth="yes"/>
    </contour>
  </outline>
</glyph>
<glyph name="hyphen" format="2">
  <advance width="343"/>
  <unicode hex="002D"/>
  <outline>
    <contour>
      <point x="69" y="343" type="curve" smooth="yes"/>
      <point x="274" y="343" type="line" smooth="yes"/>
      <point x="309" y="343"/>
      <point x="320" y="354"/>
      <point x="320" y="389" type="curve" smooth="yes"/>
      <point x="320" y="469" type="line" smooth="yes"/>
      <point x="320" y="503"/>
      <point x="309" y="514"/>
      <point x="274" y="514" type="curve" smooth="yes"/>
      <point x="69" y="514" type="line" smooth="yes"/>
      <point x="34" y="514"/>
      <point x="23" y="503"/>
      <point x="23" y="469" type="curve" smooth="yes"/>
      <point x="23" y="389" type="line" smooth="yes"/>
      <point x="23" y="354"/>
      <point x="34" y="343"/>
    </contour>
  </outline>
</glyph>
<glyph name="period" format="2">
  <advance width="286"/>
  <unicode hex="002E"/>
  <outline>
    <contour>
      <point x="69" y="0" type="curve" smooth="yes"/>
      <point x="217" y="0" type="line" smooth="yes"/>
      <point x="251" y="0"/>
      <point x="263" y="11"/>
      <point x="263" y="46" type="curve" smooth="yes"/>
      <point x="263" y="194" type="line" smooth="yes"/>
      <point x="263" y="229"/>
      <point x="251" y="240"/>
      <point x="217" y="240" type="curve" smooth="yes"/>
      <point x="69" y="240" type="line" smooth="yes"/>
      <point x="34" y="240"/>
      <point x="23" y="229"/>
      <point x="23" y="194" type="curve" smooth="yes"/>
      <point x="23" y="46" type="line" smooth="yes"/>
      <point x="23" y="11"/>
      <point x="34" y="0"/>
    </contour>
  </outline>
</glyph>
<glyph name="slash" format="2">
  <advance width="343"/>
  <unicode hex="002F"/>
  <outline>
    <contour>
      <point x="58" y="0" type="curve" smooth="yes"/>
      <point x="195" y="0" type="line" smooth="yes"/>
      <point x="230" y="0"/>
      <point x="237" y="11"/>
      <point x="241" y="46" type="curve" smooth="yes"/>
      <point x="329" y="749" type="line" smooth="yes"/>
      <point x="330" y="754"/>
      <point x="331" y="761"/>
      <point x="331" y="767" type="curve" smooth="yes"/>
      <point x="331" y="792"/>
      <point x="314" y="800"/>
      <point x="285" y="800" type="curve" smooth="yes"/>
      <point x="147" y="800" type="line" smooth="yes"/>
      <point x="113" y="800"/>
      <point x="106" y="789"/>
      <point x="102" y="754" type="curve" smooth="yes"/>
      <point x="14" y="51" type="line" smooth="yes"/>
      <point x="13" y="47"/>
      <point x="11" y="41"/>
      <point x="11" y="33" type="curve" smooth="yes"/>
      <point x="11" y="9"/>
      <point x="29" y="0"/>
    </contour>
  </outline>
</glyph>
<glyph name="six" format="2">
  <advance width="536"/>
  <unicode hex="0036"/>
  <outline>
    <contour>
      <point x="271" y="-11" type="curve" smooth="yes"/>
      <point x="431" y="-11"/>
      <point x="522" y="69"/>
      <point x="522" y="229" type="curve" smooth="yes"/>
      <point x="522" y="286" type="line" smooth="yes"/>
      <point x="522" y="418"/>
      <point x="446" y="466"/>
      <point x="347" y="466" type="curve" smooth="yes"/>
      <point x="269" y="466"/>
      <point x="251" y="442"/>
      <point x="237" y="442" type="curve" smooth="yes"/>
      <point x="229" y="442"/>
      <point x="225" y="446"/>
      <point x="225" y="461" type="curve" smooth="yes"/>
      <point x="225" y="594" type="line" smooth="yes"/>
      <point x="225" y="629"/>
      <point x="237" y="652"/>
      <point x="271" y="652" type="curve" smooth="yes"/>
      <point x="305" y="652"/>
      <point x="317" y="629"/>
      <point x="317" y="594" type="curve" smooth="yes"/>
      <point x="317" y="560"/>
      <point x="328" y="549"/>
      <point x="362" y="549" type="curve" smooth="yes"/>
      <point x="465" y="549" type="line" smooth="yes"/>
      <point x="499" y="549"/>
      <point x="511" y="560"/>
      <point x="511" y="594" type="curve" smooth="yes"/>
      <point x="511" y="720"/>
      <point x="431" y="812"/>
      <point x="271" y="812" type="curve" smooth="yes"/>
      <point x="111" y="812"/>
      <point x="19" y="732"/>
      <point x="19" y="572" type="curve" smooth="yes"/>
      <point x="19" y="229" type="line" smooth="yes"/>
      <point x="19" y="69"/>
      <point x="111" y="-11"/>
    </contour>
    <contour>
      <point x="271" y="160" type="curve" smooth="yes"/>
      <point x="237" y="160"/>
      <point x="225" y="183"/>
      <point x="225" y="217" type="curve" smooth="yes"/>
      <point x="225" y="286" type="line" smooth="yes"/>
      <point x="225" y="320"/>
      <point x="237" y="343"/>
      <point x="271" y="343" type="curve" smooth="yes"/>
      <point x="305" y="343"/>
      <point x="317" y="320"/>
      <point x="317" y="286" type="curve" smooth="yes"/>
      <point x="317" y="217" type="line" smooth="yes"/>
      <point x="317" y="183"/>
      <point x="305" y="160"/>
    </contour>
  </outline>
</glyph>
<glyph name="seven" format="2">
  <advance width="491"/>
  <unicode hex="0037"/>
  <outline>
    <contour>
      <point x="91" y="0" type="curve" smooth="yes"/>
      <point x="206" y="0" type="line" smooth="yes"/>
      <point x="240" y="0"/>
      <point x="251" y="11"/>
      <point x="251" y="46" type="curve" smooth="yes"/>
      <point x="251" y="237"/>
      <point x="293" y="441"/>
      <point x="437" y="606" type="curve" smooth="yes"/>
      <point x="453" y="624"/>
      <point x="480" y="647"/>
      <point x="480" y="686" type="curve" smooth="yes"/>
      <point x="480" y="754" type="line" smooth="yes"/>
      <point x="480" y="789"/>
      <point x="469" y="800"/>
      <point x="434" y="800" type="curve" smooth="yes"/>
      <point x="57" y="800" type="line" smooth="yes"/>
      <point x="23" y="800"/>
      <point x="11" y="789"/>
      <point x="11" y="754" type="curve" smooth="yes"/>
      <point x="11" y="686" type="line" smooth="yes"/>
      <point x="11" y="652"/>
      <point x="23" y="640"/>
      <point x="57" y="640" type="curve" smooth="yes"/>
      <point x="224" y="640" type="line" smooth="yes"/>
      <point x="241" y="640"/>
      <point x="249" y="634"/>
      <point x="249" y="617" type="curve" smooth="yes"/>
      <point x="249" y="606"/>
      <point x="241" y="594"/>
      <point x="235" y="586" type="curve" smooth="yes"/>
      <point x="128" y="429"/>
      <point x="46" y="235"/>
      <point x="46" y="46" type="curve" smooth="yes"/>
      <point x="46" y="11"/>
      <point x="57" y="0"/>
    </contour>
  </outline>
</glyph>
<glyph name="eight" format="2">
  <advance width="539"/>
  <unicode hex="0038"/>
  <outline>
    <contour>
      <point x="270" y="-11" type="curve" smooth="yes"/>
      <point x="430" y="-11"/>
      <point x="521" y="69"/>
      <point x="521" y="229" type="curve" smooth="yes"/>
      <point x="521" y="263" type="line" smooth="yes"/>
      <point x="521" y="342"/>
      <point x="491" y="384"/>
      <point x="467" y="408" type="curve" smooth="yes"/>
      <point x="458" y="417"/>
      <point x="453" y="424"/>
      <point x="453" y="430" type="curve" smooth="yes"/>
      <point x="453" y="438"/>
      <point x="454" y="440"/>
      <point x="463" y="451" type="curve" smooth="yes"/>
      <point x="493" y="488"/>
      <point x="510" y="526"/>
      <point x="510" y="572" type="curve" smooth="yes"/>
      <point x="510" y="594" type="line" smooth="yes"/>
      <point x="510" y="743"/>
      <point x="430" y="812"/>
      <point x="270" y="812" type="curve" smooth="yes"/>
      <point x="110" y="812"/>
      <point x="30" y="743"/>
      <point x="30" y="594" type="curve" smooth="yes"/>
      <point x="30" y="572" type="line" smooth="yes"/>
      <point x="30" y="522"/>
      <point x="41" y="490"/>
      <point x="73" y="451" type="curve" smooth="yes"/>
      <point x="86" y="437"/>
      <point x="87" y="438"/>
      <point x="87" y="430" type="curve" smooth="yes"/>
      <point x="87" y="423"/>
      <point x="78" y="414"/>
      <point x="69" y="403" type="curve" smooth="yes"/>
      <point x="45" y="374"/>
      <point x="18" y="342"/>
      <point x="18" y="263" type="curve" smooth="yes"/>
      <point x="18" y="229" type="line" smooth="yes"/>
      <point x="18" y="69"/>
      <point x="110" y="-11"/>
    </contour>
    <contour>
      <point x="270" y="514" type="curve" smooth="yes"/>
      <point x="235" y="514"/>
      <point x="224" y="537"/>
      <point x="224" y="572" type="curve" smooth="yes"/>
      <point x="224" y="583" type="line" smooth="yes"/>
      <point x="224" y="617"/>
      <point x="235" y="640"/>
      <point x="270" y="640" type="curve" smooth="yes"/>
      <point x="304" y="640"/>
      <point x="315" y="617"/>
      <point x="315" y="583" type="curve" smooth="yes"/>
      <point x="315" y="572" type="line" smooth="yes"/>
      <point x="315" y="537"/>
      <point x="304" y="514"/>
    </contour>
    <contour>
      <point x="270" y="160" type="curve" smooth="yes"/>
      <point x="235" y="160"/>
      <point x="224" y="183"/>
      <point x="224" y="217" type="curve" smooth="yes"/>
      <point x="224" y="286" type="line" smooth="yes"/>
      <point x="224" y="320"/>
      <point x="235" y="343"/>
      <point x="270" y="343" type="curve" smooth="yes"/>
      <point x="304" y="343"/>
      <point x="315" y="320"/>
      <point x="315" y="286" type="curve" smooth="yes"/>
      <point x="315" y="217" type="line" smooth="yes"/>
      <point x="315" y="183"/>
      <point x="304" y="160"/>
    </contour>
  </outline>
</glyph>
<glyph name="nine" format="2">
  <advance width="536"/>
  <unicode hex="0039"/>
  <outline>
    <contour>
      <point x="265" y="812" type="curve" smooth="yes"/>
      <point x="105" y="812"/>
      <point x="14" y="732"/>
      <point x="14" y="572" type="curve" smooth="yes"/>
      <point x="14" y="514" type="line" smooth="yes"/>
      <point x="14" y="382"/>
      <point x="90" y="334"/>
      <point x="189" y="334" type="curve" smooth="yes"/>
      <point x="267" y="334"/>
      <point x="285" y="358"/>
      <point x="299" y="358" type="curve" smooth="yes"/>
      <point x="307" y="358"/>
      <point x="311" y="354"/>
      <point x="311" y="339" type="curve" smooth="yes"/>
      <point x="311" y="206" type="line" smooth="yes"/>
      <point x="311" y="171"/>
      <point x="299" y="149"/>
      <point x="265" y="149" type="curve" smooth="yes"/>
      <point x="231" y="149"/>
      <point x="219" y="171"/>
      <point x="219" y="206" type="curve" smooth="yes"/>
      <point x="219" y="240"/>
      <point x="208" y="251"/>
      <point x="174" y="251" type="curve" smooth="yes"/>
      <point x="71" y="251" type="line" smooth="yes"/>
      <point x="37" y="251"/>
      <point x="25" y="240"/>
      <point x="25" y="206" type="curve" smooth="yes"/>
      <point x="25" y="80"/>
      <point x="105" y="-11"/>
      <point x="265" y="-11" type="curve" smooth="yes"/>
      <point x="425" y="-11"/>
      <point x="517" y="69"/>
      <point x="517" y="229" type="curve" smooth="yes"/>
      <point x="517" y="572" type="line" smooth="yes"/>
      <point x="517" y="732"/>
      <point x="425" y="812"/>
    </contour>
    <contour>
      <point x="265" y="640" type="curve" smooth="yes"/>
      <point x="299" y="640"/>
      <point x="311" y="617"/>
      <point x="311" y="583" type="curve" smooth="yes"/>
      <point x="311" y="514" type="line" smooth="yes"/>
      <point x="311" y="480"/>
      <point x="299" y="457"/>
      <point x="265" y="457" type="curve" smooth="yes"/>
      <point x="231" y="457"/>
      <point x="219" y="480"/>
      <point x="219" y="514" type="curve" smooth="yes"/>
      <point x="219" y="583" type="line" smooth="yes"/>
      <point x="219" y="617"/>
      <point x="231" y="640"/>
    </contour>
  </outline>
</glyph>
<glyph name="less" format="2">
  <advance width="503"/>
  <unicode hex="003C"/>
  <outline>
    <contour>
      <point x="446" y="0" type="line" smooth="yes"/>
      <point x="480" y="0"/>
      <point x="491" y="18"/>
      <point x="491" y="46" type="curve" smooth="yes"/>
      <point x="491" y="106" type="line" smooth="yes"/>
      <point x="491" y="137"/>
      <point x="470" y="159"/>
      <point x="447" y="182" type="curve" smooth="yes"/>
      <point x="289" y="336" type="line" smooth="yes"/>
      <point x="270" y="355"/>
      <point x="248" y="374"/>
      <point x="248" y="395" type="curve" smooth="yes"/>
      <point x="248" y="417"/>
      <point x="269" y="434"/>
      <point x="289" y="455" type="curve" smooth="yes"/>
      <point x="447" y="608" type="line" smooth="yes"/>
      <point x="470" y="631"/>
      <point x="491" y="653"/>
      <point x="491" y="684" type="curve" smooth="yes"/>
      <point x="491" y="754" type="line" smooth="yes"/>
      <point x="491" y="782"/>
      <point x="480" y="800"/>
      <point x="446" y="800" type="curve" smooth="yes"/>
      <point x="411" y="800" type="line" smooth="yes"/>
      <point x="389" y="800"/>
      <point x="370" y="789"/>
      <point x="343" y="761" type="curve" smooth="yes"/>
      <point x="89" y="506" type="line" smooth="yes"/>
      <point x="26" y="442"/>
      <point x="11" y="422"/>
      <point x="11" y="400" type="curve" smooth="yes"/>
      <point x="11" y="371"/>
      <point x="27" y="353"/>
      <point x="89" y="291" type="curve" smooth="yes"/>
      <point x="343" y="39" type="line" smooth="yes"/>
      <point x="368" y="14"/>
      <point x="389" y="0"/>
      <point x="411" y="0" type="curve" smooth="yes"/>
    </contour>
  </outline>
</glyph>
<glyph name="A" format="2">
  <advance width="549"/>
  <unicode hex="0041"/>
  <anchor x="274" y="0" name="bottom"/>
  <anchor x="274" y="800" name="top"/>
  <outline>
    <contour>
      <point x="57" y="0" type="curve" smooth="yes"/>
      <point x="211" y="0" type="line" smooth="yes"/>
      <point x="234" y="0"/>
      <point x="257" y="10"/>
      <point x="257" y="46" type="curve" smooth="yes"/>
      <point x="257" y="126" type="line" smooth="yes"/>
      <point x="257" y="143"/>
      <point x="262" y="149"/>
      <point x="273" y="149" type="curve" smooth="yes"/>
      <point x="275" y="149" type="line" smooth="yes"/>
      <point x="287" y="149"/>
      <point x="291" y="143"/>
      <point x="291" y="126" type="curve" smooth="yes"/>
      <point x="291" y="46" type="line" smooth="yes"/>
      <point x="291" y="10"/>
      <point x="314" y="0"/>
      <point x="337" y="0" type="curve" smooth="yes"/>
      <point x="491" y="0" type="line" smooth="yes"/>
      <point x="526" y="0"/>
      <point x="537" y="11"/>
      <point x="537" y="46" type="curve" smooth="yes"/>
      <point x="537" y="69"/>
      <point x="531" y="103"/>
      <point x="529" y="137" type="curve" smooth="yes"/>
      <point x="491" y="754" type="line" smooth="yes"/>
      <point x="489" y="789"/>
      <point x="469" y="800"/>
      <point x="434" y="800" type="curve" smooth="yes"/>
      <point x="114" y="800" type="line" smooth="yes"/>
      <point x="80" y="800"/>
      <point x="59" y="789"/>
      <point x="57" y="754" type="curve" smooth="yes"/>
      <point x="19" y="137" type="line" smooth="yes"/>
      <point x="17" y="103"/>
      <point x="11" y="69"/>
      <point x="11" y="46" type="curve" smooth="yes"/>
      <point x="11" y="11"/>
      <point x="23" y="0"/>
    </contour>
    <contour>
      <point x="273" y="320" type="line" smooth="yes"/>
      <point x="262" y="320"/>
      <point x="257" y="329"/>
      <point x="257" y="342" type="curve" smooth="yes"/>
      <point x="257" y="351"/>
      <point x="257" y="355"/>
      <point x="257" y="367" type="curve" smooth="yes"/>
      <point x="257" y="606" type="line" smooth="yes"/>
      <point x="257" y="621"/>
      <point x="264" y="629"/>
      <point x="274" y="629" type="curve" smooth="yes"/>
      <point x="285" y="629"/>
      <point x="291" y="621"/>
      <point x="291" y="606" type="curve" smooth="yes"/>
      <point x="291" y="367" type="line" smooth="yes"/>
      <point x="291" y="355"/>
      <point x="291" y="351"/>
      <point x="291" y="342" type="curve" smooth="yes"/>
      <point x="291" y="329"/>
      <point x="287" y="320"/>
      <point x="275" y="320" type="curve" smooth="yes"/>
    </contour>
  </outline>
</glyph>
<glyph name="B" format="2">
  <advance width="549"/>
  <unicode hex="0042"/>
  <outline>
    <contour>
      <point x="56" y="0" type="curve" smooth="yes"/>
      <point x="320" y="0" type="line" smooth="yes"/>
      <point x="469" y="0"/>
      <point x="537" y="69"/>
      <point x="537" y="206" type="curve" smooth="yes"/>
      <point x="537" y="240" type="line" smooth="yes"/>
      <point x="537" y="343"/>
      <point x="475" y="385"/>
      <point x="446" y="400" type="curve" smooth="yes"/>
      <point x="440" y="403"/>
      <point x="434" y="406"/>
      <point x="434" y="411" type="curve" smooth="yes"/>
      <point x="434" y="417"/>
      <point x="439" y="418"/>
      <point x="446" y="423" type="curve" smooth="yes"/>
      <point x="472" y="440"/>
      <point x="514" y="480"/>
      <point x="514" y="560" type="curve" smooth="yes"/>
      <point x="514" y="594" type="line" smooth="yes"/>
      <point x="514" y="743"/>
      <point x="423" y="800"/>
      <point x="274" y="800" type="curve" smooth="yes"/>
      <point x="57" y="800" type="line" smooth="yes"/>
      <point x="23" y="800"/>
      <point x="11" y="789"/>
      <point x="11" y="754" type="curve" smooth="yes"/>
      <point x="11" y="46" type="line" smooth="yes"/>
      <point x="11" y="11"/>
      <point x="22" y="0"/>
    </contour>
    <contour>
      <point x="267" y="160" type="line" smooth="yes"/>
      <point x="256" y="160"/>
      <point x="251" y="169"/>
      <point x="251" y="182" type="curve" smooth="yes"/>
      <point x="251" y="309" type="line" smooth="yes"/>
      <point x="251" y="323"/>
      <point x="256" y="331"/>
      <point x="267" y="331" type="curve" smooth="yes"/>
      <point x="270" y="331" type="line" smooth="yes"/>
      <point x="281" y="331"/>
      <point x="286" y="323"/>
      <point x="286" y="309" type="curve" smooth="yes"/>
      <point x="286" y="182" type="line" smooth="yes"/>
      <point x="286" y="169"/>
      <point x="281" y="160"/>
      <point x="270" y="160" type="curve" smooth="yes"/>
    </contour>
    <contour>
      <point x="267" y="491" type="line" smooth="yes"/>
      <point x="256" y="491"/>
      <point x="251" y="501"/>
      <point x="251" y="513" type="curve" smooth="yes"/>
      <point x="251" y="617" type="line" smooth="yes"/>
      <point x="251" y="632"/>
      <point x="256" y="640"/>
      <point x="267" y="640" type="curve" smooth="yes"/>
      <point x="270" y="640" type="line" smooth="yes"/>
      <point x="281" y="640"/>
      <point x="286" y="632"/>
      <point x="286" y="617" type="curve" smooth="yes"/>
      <point x="286" y="513" type="line" smooth="yes"/>
      <point x="286" y="501"/>
      <point x="281" y="491"/>
      <point x="270" y="491" type="curve" smooth="yes"/>
    </contour>
  </outline>
</glyph>
<glyph name="C" format="2">
  <advance width="526"/>
  <unicode hex="0043"/>
  <anchor x="274" y="800" name="top"/>
  <outline>
    <contour>
      <point x="271" y="-11" type="curve" smooth="yes"/>
      <point x="431" y="-11"/>
      <point x="514" y="69"/>
      <point x="514" y="229" type="curve" smooth="yes"/>
      <point x="514" y="349" type="line" smooth="yes"/>
      <point x="514" y="383"/>
      <point x="503" y="394"/>
      <point x="469" y="394" type="curve" smooth="yes"/>
      <point x="334" y="394" type="line" smooth="yes"/>
      <point x="299" y="394"/>
      <point x="288" y="383"/>
      <point x="288" y="349" type="curve" smooth="yes"/>
      <point x="288" y="183" type="line" smooth="yes"/>
      <point x="288" y="168"/>
      <point x="282" y="160"/>
      <point x="271" y="160" type="curve" smooth="yes"/>
      <point x="259" y="160"/>
      <point x="254" y="168"/>
      <point x="254" y="183" type="curve" smooth="yes"/>
      <point x="254" y="617" type="line" smooth="yes"/>
      <point x="254" y="632"/>
      <point x="259" y="640"/>
      <point x="271" y="640" type="curve" smooth="yes"/>
      <point x="282" y="640"/>
      <point x="288" y="632"/>
      <point x="288" y="617" type="curve" smooth="yes"/>
      <point x="288" y="474" type="line" smooth="yes"/>
      <point x="288" y="440"/>
      <point x="299" y="429"/>
      <point x="334" y="429" type="curve" smooth="yes"/>
      <point x="469" y="429" type="line" smooth="yes"/>
      <point x="503" y="429"/>
      <point x="514" y="440"/>
      <point x="514" y="474" type="curve" smooth="yes"/>
      <point x="514" y="572" type="line" smooth="yes"/>
      <point x="514" y="732"/>
      <point x="431" y="812"/>
      <point x="271" y="812" type="curve" smooth="yes"/>
      <point x="111" y="812"/>
      <point x="11" y="732"/>
      <point x="11" y="572" type="curve" smooth="yes"/>
      <point x="11" y="229" type="line" smooth="yes"/>
      <point x="11" y="69"/>
      <point x="111" y="-11"/>
    </contour>
  </outline>
</glyph>
<glyph name="D" format="2">
  <advance width="560"/>
  <unicode hex="0044"/>
  <anchor x="274" y="800" name="top"/>
  <outline>
    <contour>
      <point x="63" y="0" type="curve" smooth="yes"/>
      <point x="331" y="0" type="line" smooth="yes"/>
      <point x="480" y="0"/>
      <point x="543" y="69"/>
      <point x="543" y="217" type="curve" smooth="yes"/>
      <point x="543" y="583" type="line" smooth="yes"/>
      <point x="543" y="732"/>
      <point x="457" y="800"/>
      <point x="309" y="800" type="curve" smooth="yes"/>
      <point x="65" y="800" type="line" smooth="yes"/>
      <point x="33" y="800"/>
      <point x="17" y="784"/>
      <point x="17" y="752" type="curve" smooth="yes"/>
      <point x="17" y="46" type="line" smooth="yes"/>
      <point x="17" y="11"/>
      <point x="29" y="0"/>
    </contour>
    <contour>
      <point x="279" y="171" type="line" smooth="yes"/>
      <point x="269" y="171"/>
      <point x="264" y="179"/>
      <point x="264" y="195" type="curve" smooth="yes"/>
      <point x="264" y="605" type="line" smooth="yes"/>
      <point x="264" y="621"/>
      <point x="269" y="629"/>
      <point x="279" y="629" type="curve" smooth="yes"/>
      <point x="281" y="629" type="line" smooth="yes"/>
      <point x="291" y="629"/>
      <point x="296" y="621"/>
      <point x="296" y="605" type="curve" smooth="yes"/>
      <point x="296" y="195" type="line" smooth="yes"/>
      <point x="296" y="179"/>
      <point x="291" y="171"/>
      <point x="281" y="171" type="curve" smooth="yes"/>
    </contour>
  </outline>
</glyph>
<glyph name="E" format="2">
  <advance width="434"/>
  <unicode hex="0045"/>
  <anchor x="213" y="800" name="top"/>
  <outline>
    <contour>
      <point x="63" y="0" type="curve" smooth="yes"/>
      <point x="377" y="0" type="line" smooth="yes"/>
      <point x="411" y="0"/>
      <point x="423" y="11"/>
      <point x="423" y="46" type="curve" smooth="yes"/>
      <point x="423" y="205" type="line" smooth="yes"/>
      <point x="423" y="239"/>
      <point x="411" y="251"/>
      <point x="377" y="251" type="curve" smooth="yes"/>
      <point x="280" y="251" type="line" smooth="yes"/>
      <point x="265" y="251"/>
      <point x="257" y="257"/>
      <point x="257" y="267" type="curve" smooth="yes"/>
      <point x="257" y="270" type="line" smooth="yes"/>
      <point x="257" y="280"/>
      <point x="265" y="286"/>
      <point x="280" y="286" type="curve" smooth="yes"/>
      <point x="354" y="286" type="line" smooth="yes"/>
      <point x="389" y="286"/>
      <point x="400" y="298"/>
      <point x="400" y="333" type="curve" smooth="yes"/>
      <point x="400" y="473" type="line" smooth="yes"/>
      <point x="400" y="507"/>
      <point x="389" y="514"/>
      <point x="354" y="514" type="curve" smooth="yes"/>
      <point x="280" y="514" type="line" smooth="yes"/>
      <point x="265" y="514"/>
      <point x="257" y="520"/>
      <point x="257" y="530" type="curve" smooth="yes"/>
      <point x="257" y="533" type="line" smooth="yes"/>
      <point x="257" y="543"/>
      <point x="265" y="549"/>
      <point x="280" y="549" type="curve" smooth="yes"/>
      <point x="377" y="549" type="line" smooth="yes"/>
      <point x="411" y="549"/>
      <point x="423" y="555"/>
      <point x="423" y="590" type="curve" smooth="yes"/>
      <point x="423" y="754" type="line" smooth="yes"/>
      <point x="423" y="789"/>
      <point x="411" y="800"/>
      <point x="377" y="800" type="curve" smooth="yes"/>
      <point x="63" y="800" type="line" smooth="yes"/>
      <point x="29" y="800"/>
      <point x="17" y="789"/>
      <point x="17" y="754" type="curve" smooth="yes"/>
      <point x="17" y="46" type="line" smooth="yes"/>
      <point x="17" y="11"/>
      <point x="29" y="0"/>
    </contour>
  </outline>
</glyph>
<glyph name="F" format="2">
  <advance width="434"/>
  <unicode hex="0046"/>
  <outline>
    <contour>
      <point x="63" y="0" type="curve" smooth="yes"/>
      <point x="229" y="0" type="line" smooth="yes"/>
      <point x="263" y="0"/>
      <point x="274" y="11"/>
      <point x="274" y="46" type="curve" smooth="yes"/>
      <point x="274" y="277" type="line" smooth="yes"/>
      <point x="274" y="287"/>
      <point x="282" y="293"/>
      <point x="297" y="293" type="curve" smooth="yes"/>
      <point x="354" y="293" type="line" smooth="yes"/>
      <point x="389" y="293"/>
      <point x="400" y="305"/>
      <point x="400" y="339" type="curve" smooth="yes"/>
      <point x="400" y="455" type="line" smooth="yes"/>
      <point x="400" y="489"/>
      <point x="389" y="496"/>
      <point x="354" y="496" type="curve" smooth="yes"/>
      <point x="297" y="496" type="line" smooth="yes"/>
      <point x="282" y="496"/>
      <point x="274" y="502"/>
      <point x="274" y="512" type="curve" smooth="yes"/>
      <point x="274" y="514" type="line" smooth="yes"/>
      <point x="274" y="525"/>
      <point x="282" y="530"/>
      <point x="297" y="530" type="curve" smooth="yes"/>
      <point x="377" y="530" type="line" smooth="yes"/>
      <point x="411" y="530"/>
      <point x="423" y="537"/>
      <point x="423" y="572" type="curve" smooth="yes"/>
      <point x="423" y="754" type="line" smooth="yes"/>
      <point x="423" y="789"/>
      <point x="411" y="800"/>
      <point x="377" y="800" type="curve" smooth="yes"/>
      <point x="63" y="800" type="line" smooth="yes"/>
      <point x="29" y="800"/>
      <point x="17" y="789"/>
      <point x="17" y="754" type="curve" smooth="yes"/>
      <point x="17" y="46" type="line" smooth="yes"/>
      <point x="17" y="11"/>
      <point x="29" y="0"/>
    </contour>
  </outline>
</glyph>
<glyph name="G" format="2">
  <advance width="537"/>
  <unicode hex="0047"/>
  <anchor x="269" y="0" name="bottom"/>
  <anchor x="274" y="800" name="top"/>
  <outline>
    <contour>
      <point x="248" y="-11" type="curve" smooth="yes"/>
      <point x="351" y="-11"/>
      <point x="365" y="40"/>
      <point x="392" y="40" type="curve" smooth="yes"/>
      <point x="415" y="40"/>
      <point x="446" y="0"/>
      <point x="481" y="0" type="curve" smooth="yes"/>
      <point x="509" y="0"/>
      <point x="520" y="11"/>
      <point x="520" y="46" type="curve" smooth="yes"/>
      <point x="520" y="377" type="line" smooth="yes"/>
      <point x="520" y="411"/>
      <point x="507" y="423"/>
      <point x="474" y="423" type="curve" smooth="yes"/>
      <point x="309" y="423" type="line" smooth="yes"/>
      <point x="294" y="423"/>
      <point x="286" y="415"/>
      <point x="286" y="400" type="curve" smooth="yes"/>
      <point x="286" y="246" type="line" smooth="yes"/>
      <point x="286" y="231"/>
      <point x="294" y="223"/>
      <point x="309" y="223" type="curve" smooth="yes"/>
      <point x="311" y="223" type="line" smooth="yes"/>
      <point x="326" y="223"/>
      <point x="334" y="210"/>
      <point x="334" y="194" type="curve" smooth="yes"/>
      <point x="334" y="171"/>
      <point x="320" y="160"/>
      <point x="296" y="160" type="curve" smooth="yes"/>
      <point x="266" y="160"/>
      <point x="251" y="171"/>
      <point x="251" y="194" type="curve" smooth="yes"/>
      <point x="251" y="617" type="line" smooth="yes"/>
      <point x="251" y="632"/>
      <point x="257" y="640"/>
      <point x="269" y="640" type="curve" smooth="yes"/>
      <point x="280" y="640"/>
      <point x="286" y="630"/>
      <point x="286" y="617" type="curve" smooth="yes"/>
      <point x="286" y="503" type="line" smooth="yes"/>
      <point x="286" y="471"/>
      <point x="297" y="457"/>
      <point x="331" y="457" type="curve" smooth="yes"/>
      <point x="474" y="457" type="line" smooth="yes"/>
      <point x="509" y="457"/>
      <point x="520" y="469"/>
      <point x="520" y="503" type="curve" smooth="yes"/>
      <point x="520" y="583" type="line" smooth="yes"/>
      <point x="520" y="743"/>
      <point x="431" y="812"/>
      <point x="271" y="812" type="curve" smooth="yes"/>
      <point x="111" y="812"/>
      <point x="17" y="743"/>
      <point x="17" y="583" type="curve" smooth="yes"/>
      <point x="17" y="217" type="line" smooth="yes"/>
      <point x="17" y="57"/>
      <point x="111" y="-11"/>
    </contour>
  </outline>
</glyph>
<glyph name="H" format="2">
  <advance width="572"/>
  <unicode hex="0048"/>
  <outline>
    <contour>
      <point x="63" y="0" type="curve" smooth="yes"/>
      <point x="223" y="0" type="line" smooth="yes"/>
      <point x="257" y="0"/>
      <point x="269" y="11"/>
      <point x="269" y="46" type="curve" smooth="yes"/>
      <point x="269" y="297" type="line" smooth="yes"/>
      <point x="269" y="312"/>
      <point x="273" y="320"/>
      <point x="285" y="320" type="curve" smooth="yes"/>
      <point x="287" y="320" type="line" smooth="yes"/>
      <point x="298" y="320"/>
      <point x="303" y="312"/>
      <point x="303" y="297" type="curve" smooth="yes"/>
      <point x="303" y="46" type="line" smooth="yes"/>
      <point x="303" y="11"/>
      <point x="314" y="0"/>
      <point x="349" y="0" type="curve" smooth="yes"/>
      <point x="509" y="0" type="line" smooth="yes"/>
      <point x="543" y="0"/>
      <point x="554" y="11"/>
      <point x="554" y="46" type="curve" smooth="yes"/>
      <point x="554" y="754" type="line" smooth="yes"/>
      <point x="554" y="789"/>
      <point x="543" y="800"/>
      <point x="509" y="800" type="curve" smooth="yes"/>
      <point x="349" y="800" type="line" smooth="yes"/>
      <point x="314" y="800"/>
      <point x="303" y="789"/>
      <point x="303" y="754" type="curve" smooth="yes"/>
      <point x="303" y="537" type="line" smooth="yes"/>
      <point x="303" y="522"/>
      <point x="298" y="514"/>
      <point x="287" y="514" type="curve" smooth="yes"/>
      <point x="285" y="514" type="line" smooth="yes"/>
      <point x="273" y="514"/>
      <point x="269" y="522"/>
      <point x="269" y="537" type="curve" smooth="yes"/>
      <point x="269" y="754" type="line" smooth="yes"/>
      <point x="269" y="789"/>
      <point x="257" y="800"/>
      <point x="223" y="800" type="curve" smooth="yes"/>
      <point x="63" y="800" type="line" smooth="yes"/>
      <point x="29" y="800"/>
      <point x="17" y="789"/>
      <point x="17" y="754" type="curve" smooth="yes"/>
      <point x="17" y="46" type="line" smooth="yes"/>
      <point x="17" y="11"/>
      <point x="29" y="0"/>
    </contour>
  </outline>
</glyph>
<glyph name="I" format="2">
  <advance width="274"/>
  <unicode hex="0049"/>
  <anchor x="137" y="800" name="top"/>
  <outline>
    <contour>
      <point x="63" y="0" type="curve" smooth="yes"/>
      <point x="211" y="0" type="line" smooth="yes"/>
      <point x="246" y="0"/>
      <point x="257" y="11"/>
      <point x="257" y="46" type="curve" smooth="yes"/>
      <point x="257" y="754" type="line" smooth="yes"/>
      <point x="257" y="789"/>
      <point x="246" y="800"/>
      <point x="211" y="800" type="curve" smooth="yes"/>
      <point x="63" y="800" type="line" smooth="yes"/>
      <point x="29" y="800"/>
      <point x="17" y="789"/>
      <point x="17" y="754" type="curve" smooth="yes"/>
      <point x="17" y="46" type="line" smooth="yes"/>
      <point x="17" y="11"/>
      <point x="29" y="0"/>
    </contour>
  </outline>
</glyph>
<glyph name="J" format="2">
  <advance width="349"/>
  <unicode hex="004A"/>
  <outline>
    <contour>
      <point x="57" y="0" type="curve" smooth="yes"/>
      <point x="167" y="0" type="line" smooth="yes"/>
      <point x="304" y="0"/>
      <point x="337" y="46"/>
      <point x="337" y="229" type="curve" smooth="yes"/>
      <point x="337" y="754" type="line" smooth="yes"/>
      <point x="337" y="789"/>
      <point x="326" y="800"/>
      <point x="291" y="800" type="curve" smooth="yes"/>
      <point x="137" y="800" type="line" smooth="yes"/>
      <point x="103" y="800"/>
      <point x="91" y="789"/>
      <point x="91" y="754" type="curve" smooth="yes"/>
      <point x="91" y="263" type="line" smooth="yes"/>
      <point x="91" y="246"/>
      <point x="86" y="240"/>
      <point x="69" y="240" type="curve" smooth="yes"/>
      <point x="57" y="240" type="line" smooth="yes"/>
      <point x="23" y="240"/>
      <point x="11" y="229"/>
      <point x="11" y="194" type="curve" smooth="yes"/>
      <point x="11" y="46" type="line" smooth="yes"/>
      <point x="11" y="11"/>
      <point x="23" y="0"/>
    </contour>
  </outline>
</glyph>
<glyph name="K" format="2">
  <advance width="549"/>
  <unicode hex="004B"/>
  <anchor x="274" y="0" name="bottom"/>
  <outline>
    <contour>
      <point x="63" y="-1" type="curve" smooth="yes"/>
      <point x="211" y="0" type="line" smooth="yes"/>
      <point x="246" y="0"/>
      <point x="257" y="11"/>
      <point x="257" y="46" type="curve" smooth="yes"/>
      <point x="254" y="320" type="line" smooth="yes"/>
      <point x="254" y="335"/>
      <point x="259" y="343"/>
      <point x="271" y="343" type="curve" smooth="yes"/>
      <point x="282" y="343"/>
      <point x="288" y="335"/>
      <point x="288" y="320" type="curve" smooth="yes"/>
      <point x="291" y="46" type="line" smooth="yes"/>
      <point x="291" y="11"/>
      <point x="314" y="0"/>
      <point x="349" y="0" type="curve" smooth="yes"/>
      <point x="496" y="0" type="line" smooth="yes"/>
      <point x="530" y="0"/>
      <point x="542" y="11"/>
      <point x="542" y="46" type="curve" smooth="yes"/>
      <point x="542" y="69"/>
      <point x="538" y="89"/>
      <point x="533" y="120" type="curve" smooth="yes"/>
      <point x="479" y="395" type="line" smooth="yes"/>
      <point x="474" y="419"/>
      <point x="473" y="435"/>
      <point x="473" y="447" type="curve" smooth="yes"/>
      <point x="473" y="458"/>
      <point x="472" y="479"/>
      <point x="481" y="512" type="curve" smooth="yes"/>
      <point x="529" y="689" type="line" smooth="yes"/>
      <point x="534" y="708"/>
      <point x="543" y="750"/>
      <point x="543" y="766" type="curve" smooth="yes"/>
      <point x="543" y="789"/>
      <point x="531" y="800"/>
      <point x="497" y="800" type="curve" smooth="yes"/>
      <point x="345" y="800" type="line" smooth="yes"/>
      <point x="314" y="800"/>
      <point x="288" y="791"/>
      <point x="288" y="754" type="curve" smooth="yes"/>
      <point x="288" y="537" type="line" smooth="yes"/>
      <point x="288" y="522"/>
      <point x="282" y="514"/>
      <point x="271" y="514" type="curve" smooth="yes"/>
      <point x="259" y="514"/>
      <point x="254" y="522"/>
      <point x="254" y="537" type="curve" smooth="yes"/>
      <point x="254" y="754" type="line" smooth="yes"/>
      <point x="254" y="789"/>
      <point x="242" y="800"/>
      <point x="208" y="800" type="curve" smooth="yes"/>
      <point x="63" y="800" type="line" smooth="yes"/>
      <point x="29" y="800"/>
      <point x="17" y="789"/>
      <point x="17" y="754" type="curve" smooth="yes"/>
      <point x="17" y="46" type="line" smooth="yes"/>
      <point x="17" y="11"/>
      <point x="29" y="-1"/>
    </contour>
  </outline>
</glyph>
<glyph name="L" format="2">
  <advance width="400"/>
  <unicode hex="004C"/>
  <anchor x="200" y="0" name="bottom"/>
  <anchor x="223" y="800" name="topright"/>
  <outline>
    <contour>
      <point x="57" y="0" type="curve" smooth="yes"/>
      <point x="343" y="0" type="line" smooth="yes"/>
      <point x="377" y="0"/>
      <point x="389" y="11"/>
      <point x="389" y="46" type="curve" smooth="yes"/>
      <point x="389" y="194" type="line" smooth="yes"/>
      <point x="389" y="229"/>
      <point x="377" y="240"/>
      <point x="343" y="240" type="curve" smooth="yes"/>
      <point x="274" y="240" type="line" smooth="yes"/>
      <point x="257" y="240"/>
      <point x="251" y="246"/>
      <point x="251" y="263" type="curve" smooth="yes"/>
      <point x="251" y="754" type="line" smooth="yes"/>
      <point x="251" y="789"/>
      <point x="240" y="800"/>
      <point x="206" y="800" type="curve" smooth="yes"/>
      <point x="57" y="800" type="line" smooth="yes"/>
      <point x="23" y="800"/>
      <point x="11" y="789"/>
      <point x="11" y="754" type="curve" smooth="yes"/>
      <point x="11" y="46" type="line" smooth="yes"/>
      <point x="11" y="11"/>
      <point x="23" y="0"/>
    </contour>
  </outline>
</glyph>
<glyph name="M" format="2">
  <advance width="686"/>
  <unicode hex="004D"/>
  <outline>
    <contour>
      <point x="63" y="0" type="curve" smooth="yes"/>
      <point x="206" y="0" type="line" smooth="yes"/>
      <point x="240" y="0"/>
      <point x="251" y="11"/>
      <point x="251" y="46" type="curve" smooth="yes"/>
      <point x="251" y="422" type="line" smooth="yes"/>
      <point x="251" y="438"/>
      <point x="256" y="446"/>
      <point x="267" y="446" type="curve" smooth="yes"/>
      <point x="278" y="446"/>
      <point x="286" y="438"/>
      <point x="286" y="406" type="curve" smooth="yes"/>
      <point x="286" y="46" type="line" smooth="yes"/>
      <point x="286" y="21"/>
      <point x="291" y="0"/>
      <point x="314" y="0" type="curve" smooth="yes"/>
      <point x="373" y="0" type="line" smooth="yes"/>
      <point x="395" y="0"/>
      <point x="401" y="23"/>
      <point x="401" y="46" type="curve" smooth="yes"/>
      <point x="400" y="406" type="line" smooth="yes"/>
      <point x="400" y="438"/>
      <point x="409" y="446"/>
      <point x="418" y="446" type="curve" smooth="yes"/>
      <point x="430" y="446"/>
      <point x="434" y="438"/>
      <point x="434" y="422" type="curve" smooth="yes"/>
      <point x="434" y="46" type="line" smooth="yes"/>
      <point x="434" y="11"/>
      <point x="446" y="0"/>
      <point x="480" y="0" type="curve" smooth="yes"/>
      <point x="623" y="0" type="line" smooth="yes"/>
      <point x="657" y="0"/>
      <point x="669" y="11"/>
      <point x="669" y="46" type="curve" smooth="yes"/>
      <point x="669" y="754" type="line" smooth="yes"/>
      <point x="669" y="789"/>
      <point x="657" y="800"/>
      <point x="623" y="800" type="curve" smooth="yes"/>
      <point x="416" y="800" type="line" smooth="yes"/>
      <point x="387" y="800"/>
      <point x="359" y="788"/>
      <point x="359" y="754" type="curve" smooth="yes"/>
      <point x="359" y="387" type="line" smooth="yes"/>
      <point x="359" y="361"/>
      <point x="352" y="354"/>
      <point x="343" y="354" type="curve" smooth="yes"/>
      <point x="334" y="354"/>
      <point x="327" y="361"/>
      <point x="327" y="387" type="curve" smooth="yes"/>
      <point x="323" y="754" type="line" smooth="yes"/>
      <point x="323" y="786"/>
      <point x="295" y="800"/>
      <point x="266" y="800" type="curve" smooth="yes"/>
      <point x="63" y="800" type="line" smooth="yes"/>
      <point x="29" y="800"/>
      <point x="17" y="789"/>
      <point x="17" y="754" type="curve" smooth="yes"/>
      <point x="17" y="46" type="line" smooth="yes"/>
      <point x="17" y="11"/>
      <point x="29" y="0"/>
    </contour>
  </outline>
</glyph>
<glyph name="N" format="2">
  <advance width="594"/>
  <unicode hex="004E"/>
  <anchor x="255" y="0" name="bottom"/>
  <anchor x="309" y="800" name="top"/>
  <outline>
    <contour>
      <point x="63" y="0" type="curve" smooth="yes"/>
      <point x="200" y="0" type="line" smooth="yes"/>
      <point x="234" y="0"/>
      <point x="246" y="11"/>
      <point x="246" y="46" type="curve" smooth="yes"/>
      <point x="246" y="423" type="line" smooth="yes"/>
      <point x="246" y="438"/>
      <point x="251" y="446"/>
      <point x="263" y="446" type="curve" smooth="yes"/>
      <point x="274" y="446"/>
      <point x="280" y="438"/>
      <point x="280" y="423" type="curve" smooth="yes"/>
      <point x="280" y="46" type="line" smooth="yes"/>
      <point x="280" y="11"/>
      <point x="291" y="0"/>
      <point x="326" y="0" type="curve" smooth="yes"/>
      <point x="531" y="0" type="line" smooth="yes"/>
      <point x="566" y="0"/>
      <point x="577" y="11"/>
      <point x="577" y="46" type="curve" smooth="yes"/>
      <point x="577" y="754" type="line" smooth="yes"/>
      <point x="577" y="789"/>
      <point x="566" y="800"/>
      <point x="531" y="800" type="curve" smooth="yes"/>
      <point x="394" y="800" type="line" smooth="yes"/>
      <point x="360" y="800"/>
      <point x="349" y="789"/>
      <point x="349" y="754" type="curve" smooth="yes"/>
      <point x="349" y="377" type="line" smooth="yes"/>
      <point x="349" y="362"/>
      <point x="343" y="354"/>
      <point x="331" y="354" type="curve" smooth="yes"/>
      <point x="320" y="354"/>
      <point x="314" y="362"/>
      <point x="314" y="377" type="curve" smooth="yes"/>
      <point x="314" y="754" type="line" smooth="yes"/>
      <point x="314" y="789"/>
      <point x="303" y="800"/>
      <point x="269" y="800" type="curve" smooth="yes"/>
      <point x="63" y="800" type="line" smooth="yes"/>
      <point x="29" y="800"/>
      <point x="17" y="789"/>
      <point x="17" y="754" type="curve" smooth="yes"/>
      <point x="17" y="46" type="line" smooth="yes"/>
      <point x="17" y="11"/>
      <point x="29" y="0"/>
    </contour>
  </outline>
</glyph>
<glyph name="O" format="2">
  <advance width="560"/>
  <unicode hex="004F"/>
  <anchor x="274" y="800" name="top"/>
  <outline>
    <contour>
      <point x="280" y="-11" type="curve" smooth="yes"/>
      <point x="440" y="-11"/>
      <point x="543" y="57"/>
      <point x="543" y="217" type="curve" smooth="yes"/>
      <point x="543" y="583" type="line" smooth="yes"/>
      <point x="543" y="743"/>
      <point x="440" y="812"/>
      <point x="280" y="812" type="curve" smooth="yes"/>
      <point x="120" y="812"/>
      <point x="17" y="743"/>
      <point x="17" y="583" type="curve" smooth="yes"/>
      <point x="17" y="217" type="line" smooth="yes"/>
      <point x="17" y="57"/>
      <point x="120" y="-11"/>
    </contour>
    <contour>
      <point x="280" y="160" type="curve" smooth="yes"/>
      <point x="269" y="160"/>
      <point x="263" y="171"/>
      <point x="263" y="183" type="curve" smooth="yes"/>
      <point x="263" y="617" type="line" smooth="yes"/>
      <point x="263" y="629"/>
      <point x="269" y="640"/>
      <point x="280" y="640" type="curve" smooth="yes"/>
      <point x="291" y="640"/>
      <point x="297" y="629"/>
      <point x="297" y="617" type="curve" smooth="yes"/>
      <point x="297" y="183" type="line" smooth="yes"/>
      <point x="297" y="171"/>
      <point x="291" y="160"/>
    </contour>
  </outline>
</glyph>
<glyph name="P" format="2">
  <advance width="537"/>
  <unicode hex="0050"/>
  <outline>
    <contour>
      <point x="63" y="0" type="curve" smooth="yes"/>
      <point x="234" y="0" type="line" smooth="yes"/>
      <point x="269" y="0"/>
      <point x="280" y="11"/>
      <point x="280" y="46" type="curve" smooth="yes"/>
      <point x="280" y="274" type="line" smooth="yes"/>
      <point x="280" y="291"/>
      <point x="286" y="297"/>
      <point x="303" y="297" type="curve" smooth="yes"/>
      <point x="314" y="297" type="line" smooth="yes"/>
      <point x="457" y="297"/>
      <point x="520" y="366"/>
      <point x="520" y="514" type="curve" smooth="yes"/>
      <point x="520" y="572" type="line" smooth="yes"/>
      <point x="520" y="720"/>
      <point x="457" y="800"/>
      <point x="303" y="800" type="curve" smooth="yes"/>
      <point x="63" y="800" type="line" smooth="yes"/>
      <point x="29" y="800"/>
      <point x="17" y="789"/>
      <point x="17" y="754" type="curve" smooth="yes"/>
      <point x="17" y="46" type="line" smooth="yes"/>
      <point x="17" y="11"/>
      <point x="29" y="0"/>
    </contour>
    <contour>
      <point x="296" y="457" type="line" smooth="yes"/>
      <point x="285" y="457"/>
      <point x="280" y="465"/>
      <point x="280" y="480" type="curve" smooth="yes"/>
      <point x="280" y="606" type="line" smooth="yes"/>
      <point x="280" y="621"/>
      <point x="285" y="629"/>
      <point x="296" y="629" type="curve" smooth="yes"/>
      <point x="298" y="629" type="line" smooth="yes"/>
      <point x="310" y="629"/>
      <point x="314" y="621"/>
      <point x="314" y="606" type="curve" smooth="yes"/>
      <point x="314" y="480" type="line" smooth="yes"/>
      <point x="314" y="465"/>
      <point x="310" y="457"/>
      <point x="298" y="457" type="curve" smooth="yes"/>
    </contour>
  </outline>
</glyph>
<glyph name="Q" format="2">
  <advance width="572"/>
  <unicode hex="0051"/>
  <outline>
    <contour>
      <point x="263" y="-11" type="curve" smooth="yes"/>
      <point x="341" y="-11"/>
      <point x="384" y="34"/>
      <point x="407" y="34" type="curve" smooth="yes"/>
      <point x="434" y="34"/>
      <point x="446" y="0"/>
      <point x="514" y="0" type="curve" smooth="yes"/>
      <point x="526" y="0" type="line" smooth="yes"/>
      <point x="560" y="0"/>
      <point x="566" y="11"/>
      <point x="566" y="46" type="curve" smooth="yes"/>
      <point x="566" y="137" type="line" smooth="yes"/>
      <point x="566" y="171"/>
      <point x="560" y="183"/>
      <point x="526" y="183" type="curve" smooth="yes"/>
      <point x="509" y="183"/>
      <point x="503" y="190"/>
      <point x="503" y="206" type="curve" smooth="yes"/>
      <point x="503" y="229"/>
      <point x="526" y="246"/>
      <point x="526" y="331" type="curve" smooth="yes"/>
      <point x="526" y="572" type="line" smooth="yes"/>
      <point x="526" y="732"/>
      <point x="423" y="812"/>
      <point x="263" y="812" type="curve" smooth="yes"/>
      <point x="103" y="812"/>
      <point x="11" y="732"/>
      <point x="11" y="572" type="curve" smooth="yes"/>
      <point x="11" y="229" type="line" smooth="yes"/>
      <point x="11" y="69"/>
      <point x="103" y="-11"/>
    </contour>
    <contour>
      <point x="269" y="160" type="curve" smooth="yes"/>
      <point x="257" y="160"/>
      <point x="251" y="171"/>
      <point x="251" y="183" type="curve" smooth="yes"/>
      <point x="251" y="617" type="line" smooth="yes"/>
      <point x="251" y="629"/>
      <point x="257" y="640"/>
      <point x="269" y="640" type="curve" smooth="yes"/>
      <point x="280" y="640"/>
      <point x="286" y="629"/>
      <point x="286" y="617" type="curve" smooth="yes"/>
      <point x="286" y="183" type="line" smooth="yes"/>
      <point x="286" y="171"/>
      <point x="280" y="160"/>
    </contour>
  </outline>
</glyph>
<glyph name="R" format="2">
  <advance width="560"/>
  <unicode hex="0052"/>
  <anchor x="280" y="0" name="bottom"/>
  <anchor x="280" y="800" name="top"/>
  <outline>
    <contour>
      <point x="63" y="0" type="curve" smooth="yes"/>
      <point x="217" y="0" type="line" smooth="yes"/>
      <point x="251" y="0"/>
      <point x="263" y="11"/>
      <point x="263" y="46" type="curve" smooth="yes"/>
      <point x="263" y="297" type="line" smooth="yes"/>
      <point x="263" y="312"/>
      <point x="267" y="320"/>
      <point x="279" y="320" type="curve" smooth="yes"/>
      <point x="281" y="320" type="line" smooth="yes"/>
      <point x="293" y="320"/>
      <point x="297" y="312"/>
      <point x="297" y="297" type="curve" smooth="yes"/>
      <point x="297" y="91" type="line" smooth="yes"/>
      <point x="297" y="34"/>
      <point x="320" y="0"/>
      <point x="377" y="0" type="curve" smooth="yes"/>
      <point x="503" y="0" type="line" smooth="yes"/>
      <point x="537" y="0"/>
      <point x="549" y="11"/>
      <point x="549" y="30" type="curve" smooth="yes"/>
      <point x="549" y="49"/>
      <point x="537" y="49"/>
      <point x="537" y="91" type="curve" smooth="yes"/>
      <point x="537" y="240" type="line" smooth="yes"/>
      <point x="537" y="306"/>
      <point x="519" y="346"/>
      <point x="481" y="377" type="curve" smooth="yes"/>
      <point x="462" y="393"/>
      <point x="459" y="395"/>
      <point x="459" y="401" type="curve" smooth="yes"/>
      <point x="459" y="407"/>
      <point x="467" y="411"/>
      <point x="481" y="425" type="curve" smooth="yes"/>
      <point x="515" y="457"/>
      <point x="537" y="499"/>
      <point x="537" y="560" type="curve" smooth="yes"/>
      <point x="537" y="583" type="line" smooth="yes"/>
      <point x="537" y="732"/>
      <point x="446" y="800"/>
      <point x="297" y="800" type="curve" smooth="yes"/>
      <point x="63" y="800" type="line" smooth="yes"/>
      <point x="29" y="800"/>
      <point x="17" y="789"/>
      <point x="17" y="754" type="curve" smooth="yes"/>
      <point x="17" y="46" type="line" smooth="yes"/>
      <point x="17" y="11"/>
      <point x="29" y="0"/>
    </contour>
    <contour>
      <point x="279" y="457" type="line" smooth="yes"/>
      <point x="267" y="457"/>
      <point x="263" y="465"/>
      <point x="263" y="480" type="curve" smooth="yes"/>
      <point x="263" y="606" type="line" smooth="yes"/>
      <point x="263" y="621"/>
      <point x="267" y="629"/>
      <point x="279" y="629" type="curve" smooth="yes"/>
      <point x="281" y="629" type="line" smooth="yes"/>
      <point x="293" y="629"/>
      <point x="297" y="621"/>
      <point x="297" y="606" type="curve" smooth="yes"/>
      <point x="297" y="480" type="line" smooth="yes"/>
      <point x="297" y="465"/>
      <point x="293" y="457"/>
      <point x="281" y="457" type="curve" smooth="yes"/>
    </contour>
  </outline>
</glyph>
<glyph name="S" format="2">
  <advance width="537"/>
  <unicode hex="0053"/>
  <anchor x="274" y="0" name="bottom"/>
  <anchor x="274" y="800" name="top"/>
  <outline>
    <contour>
      <point x="263" y="-11" type="curve" smooth="yes"/>
      <point x="423" y="-11"/>
      <point x="526" y="46"/>
      <point x="526" y="217" type="curve" smooth="yes"/>
      <point x="526" y="347"/>
      <point x="495" y="389"/>
      <point x="384" y="453" type="curve" smooth="yes"/>
      <point x="333" y="482" type="line" smooth="yes"/>
      <point x="257" y="526"/>
      <point x="257" y="541"/>
      <point x="257" y="617" type="curve" smooth="yes"/>
      <point x="257" y="632"/>
      <point x="263" y="640"/>
      <point x="274" y="640" type="curve" smooth="yes"/>
      <point x="286" y="640"/>
      <point x="291" y="632"/>
      <point x="291" y="617" type="curve" smooth="yes"/>
      <point x="291" y="583" type="line" smooth="yes"/>
      <point x="291" y="549"/>
      <point x="298" y="537"/>
      <point x="333" y="537" type="curve" smooth="yes"/>
      <point x="469" y="537" type="line" smooth="yes"/>
      <point x="503" y="537"/>
      <point x="514" y="549"/>
      <point x="514" y="583" type="curve" smooth="yes"/>
      <point x="514" y="732"/>
      <point x="431" y="812"/>
      <point x="271" y="812" type="curve" smooth="yes"/>
      <point x="111" y="812"/>
      <point x="23" y="732"/>
      <point x="23" y="583" type="curve" smooth="yes"/>
      <point x="23" y="431"/>
      <point x="81" y="383"/>
      <point x="171" y="335" type="curve" smooth="yes"/>
      <point x="206" y="317" type="line" smooth="yes"/>
      <point x="289" y="272"/>
      <point x="291" y="264"/>
      <point x="291" y="183" type="curve" smooth="yes"/>
      <point x="291" y="168"/>
      <point x="286" y="160"/>
      <point x="274" y="160" type="curve" smooth="yes"/>
      <point x="263" y="160"/>
      <point x="257" y="168"/>
      <point x="257" y="183" type="curve" smooth="yes"/>
      <point x="257" y="217" type="line" smooth="yes"/>
      <point x="257" y="251"/>
      <point x="240" y="263"/>
      <point x="206" y="263" type="curve" smooth="yes"/>
      <point x="57" y="263" type="line" smooth="yes"/>
      <point x="23" y="263"/>
      <point x="11" y="251"/>
      <point x="11" y="217" type="curve" smooth="yes"/>
      <point x="11" y="46"/>
      <point x="103" y="-11"/>
    </contour>
  </outline>
</glyph>
<glyph name="T" format="2">
  <advance width="503"/>
  <unicode hex="0054"/>
  <anchor x="240" y="0" name="bottom"/>
  <anchor x="240" y="800" name="top"/>
  <outline>
    <contour>
      <point x="166" y="0" type="curve" smooth="yes"/>
      <point x="337" y="0" type="line" smooth="yes"/>
      <point x="371" y="0"/>
      <point x="383" y="11"/>
      <point x="383" y="46" type="curve" smooth="yes"/>
      <point x="383" y="526" type="line" smooth="yes"/>
      <point x="383" y="543"/>
      <point x="389" y="549"/>
      <point x="406" y="549" type="curve" smooth="yes"/>
      <point x="446" y="549" type="line" smooth="yes"/>
      <point x="480" y="549"/>
      <point x="491" y="560"/>
      <point x="491" y="594" type="curve" smooth="yes"/>
      <point x="491" y="754" type="line" smooth="yes"/>
      <point x="491" y="789"/>
      <point x="480" y="800"/>
      <point x="446" y="800" type="curve" smooth="yes"/>
      <point x="57" y="800" type="line" smooth="yes"/>
      <point x="22" y="800"/>
      <point x="11" y="789"/>
      <point x="11" y="754" type="curve" smooth="yes"/>
      <point x="11" y="594" type="line" smooth="yes"/>
      <point x="11" y="566"/>
      <point x="23" y="549"/>
      <point x="57" y="549" type="curve" smooth="yes"/>
      <point x="97" y="549" type="line" smooth="yes"/>
      <point x="114" y="549"/>
      <point x="120" y="543"/>
      <point x="120" y="526" type="curve" smooth="yes"/>
      <point x="120" y="46" type="line" smooth="yes"/>
      <point x="120" y="11"/>
      <point x="131" y="0"/>
    </contour>
  </outline>
</glyph>
<glyph name="U" format="2">
  <advance width="549"/>
  <unicode hex="0055"/>
  <anchor x="272" y="800" name="top"/>
  <outline>
    <contour>
      <point x="274" y="-11" type="curve" smooth="yes"/>
      <point x="434" y="-11"/>
      <point x="531" y="80"/>
      <point x="531" y="229" type="curve" smooth="yes"/>
      <point x="531" y="754" type="line" smooth="yes"/>
      <point x="531" y="789"/>
      <point x="520" y="800"/>
      <point x="486" y="800" type="curve" smooth="yes"/>
      <point x="337" y="800" type="line" smooth="yes"/>
      <point x="303" y="800"/>
      <point x="291" y="789"/>
      <point x="291" y="754" type="curve" smooth="yes"/>
      <point x="291" y="183" type="line" smooth="yes"/>
      <point x="291" y="168"/>
      <point x="286" y="160"/>
      <point x="274" y="160" type="curve" smooth="yes"/>
      <point x="263" y="160"/>
      <point x="257" y="168"/>
      <point x="257" y="183" type="curve" smooth="yes"/>
      <point x="257" y="754" type="line" smooth="yes"/>
      <point x="257" y="789"/>
      <point x="246" y="800"/>
      <point x="211" y="800" type="curve" smooth="yes"/>
      <point x="63" y="800" type="line" smooth="yes"/>
      <point x="29" y="800"/>
      <point x="17" y="789"/>
      <point x="17" y="754" type="curve" smooth="yes"/>
      <point x="17" y="229" type="line" smooth="yes"/>
      <point x="17" y="80"/>
      <point x="114" y="-11"/>
    </contour>
  </outline>
</glyph>
<glyph name="V" format="2">
  <advance width="549"/>
  <unicode hex="0056"/>
  <outline>
    <contour>
      <point x="274" y="171" type="curve" smooth="yes"/>
      <point x="263" y="171"/>
      <point x="257" y="179"/>
      <point x="257" y="194" type="curve" smooth="yes"/>
      <point x="257" y="754" type="line" smooth="yes"/>
      <point x="257" y="790"/>
      <point x="246" y="800"/>
      <point x="223" y="800" type="curve" smooth="yes"/>
      <point x="57" y="800" type="line" smooth="yes"/>
      <point x="23" y="800"/>
      <point x="11" y="789"/>
      <point x="11" y="754" type="curve" smooth="yes"/>
      <point x="11" y="732"/>
      <point x="15" y="686"/>
      <point x="17" y="663" type="curve" smooth="yes"/>
      <point x="69" y="46" type="line" smooth="yes"/>
      <point x="71" y="11"/>
      <point x="91" y="0"/>
      <point x="126" y="0" type="curve" smooth="yes"/>
      <point x="423" y="0" type="line" smooth="yes"/>
      <point x="457" y="0"/>
      <point x="478" y="11"/>
      <point x="480" y="46" type="curve" smooth="yes"/>
      <point x="531" y="663" type="line" smooth="yes"/>
      <point x="534" y="686"/>
      <point x="537" y="732"/>
      <point x="537" y="754" type="curve" smooth="yes"/>
      <point x="537" y="789"/>
      <point x="526" y="800"/>
      <point x="491" y="800" type="curve" smooth="yes"/>
      <point x="326" y="800" type="line" smooth="yes"/>
      <point x="303" y="800"/>
      <point x="291" y="790"/>
      <point x="291" y="754" type="curve" smooth="yes"/>
      <point x="291" y="194" type="line" smooth="yes"/>
      <point x="291" y="179"/>
      <point x="286" y="171"/>
    </contour>
  </outline>
</glyph>
<glyph name="W" format="2">
  <advance width="754"/>
  <unicode hex="0057"/>
  <anchor x="377" y="800" name="top"/>
  <outline>
    <contour>
      <point x="109" y="0" type="curve" smooth="yes"/>
      <point x="311" y="0" type="line" smooth="yes"/>
      <point x="339" y="0"/>
      <point x="357" y="17"/>
      <point x="357" y="46" type="curve" smooth="yes"/>
      <point x="360" y="425" type="line" smooth="yes"/>
      <point x="360" y="439"/>
      <point x="366" y="446"/>
      <point x="377" y="446" type="curve" smooth="yes"/>
      <point x="389" y="446"/>
      <point x="394" y="439"/>
      <point x="394" y="425" type="curve" smooth="yes"/>
      <point x="398" y="46" type="line" smooth="yes"/>
      <point x="398" y="17"/>
      <point x="415" y="0"/>
      <point x="443" y="0" type="curve" smooth="yes"/>
      <point x="646" y="0" type="line" smooth="yes"/>
      <point x="674" y="0"/>
      <point x="689" y="11"/>
      <point x="692" y="46" type="curve" smooth="yes"/>
      <point x="738" y="702" type="line" smooth="yes"/>
      <point x="741" y="740"/>
      <point x="743" y="754"/>
      <point x="743" y="766" type="curve" smooth="yes"/>
      <point x="743" y="789"/>
      <point x="732" y="800"/>
      <point x="709" y="800" type="curve" smooth="yes"/>
      <point x="560" y="800" type="line" smooth="yes"/>
      <point x="526" y="800"/>
      <point x="514" y="789"/>
      <point x="514" y="754" type="curve" smooth="yes"/>
      <point x="509" y="377" type="line" smooth="yes"/>
      <point x="509" y="361"/>
      <point x="503" y="354"/>
      <point x="491" y="354" type="curve" smooth="yes"/>
      <point x="480" y="354"/>
      <point x="474" y="361"/>
      <point x="474" y="377" type="curve" smooth="yes"/>
      <point x="480" y="754" type="line" smooth="yes"/>
      <point x="480" y="789"/>
      <point x="469" y="800"/>
      <point x="434" y="800" type="curve" smooth="yes"/>
      <point x="331" y="800" type="line" smooth="yes"/>
      <point x="297" y="800"/>
      <point x="286" y="789"/>
      <point x="286" y="754" type="curve" smooth="yes"/>
      <point x="286" y="377" type="line" smooth="yes"/>
      <point x="286" y="361"/>
      <point x="280" y="354"/>
      <point x="269" y="354" type="curve" smooth="yes"/>
      <point x="257" y="354"/>
      <point x="251" y="360"/>
      <point x="251" y="377" type="curve" smooth="yes"/>
      <point x="251" y="754" type="line" smooth="yes"/>
      <point x="251" y="790"/>
      <point x="240" y="800"/>
      <point x="206" y="800" type="curve" smooth="yes"/>
      <point x="46" y="800" type="line" smooth="yes"/>
      <point x="23" y="800"/>
      <point x="11" y="789"/>
      <point x="11" y="766" type="curve" smooth="yes"/>
      <point x="11" y="754"/>
      <point x="14" y="740"/>
      <point x="16" y="702" type="curve" smooth="yes"/>
      <point x="63" y="46" type="line" smooth="yes"/>
      <point x="65" y="11"/>
      <point x="80" y="0"/>
    </contour>
  </outline>
</glyph>
<glyph name="X" format="2">
  <advance width="514"/>
  <unicode hex="0058"/>
  <outline>
    <contour>
      <point x="46" y="0" type="curve" smooth="yes"/>
      <point x="206" y="0" type="line" smooth="yes"/>
      <point x="229" y="0"/>
      <point x="251" y="11"/>
      <point x="251" y="34" type="curve" smooth="yes"/>
      <point x="249" y="261" type="line" smooth="yes"/>
      <point x="249" y="281"/>
      <point x="256" y="286"/>
      <point x="263" y="286" type="curve" smooth="yes"/>
      <point x="270" y="286"/>
      <point x="277" y="281"/>
      <point x="277" y="259" type="curve" smooth="yes"/>
      <point x="277" y="34" type="line" smooth="yes"/>
      <point x="277" y="11"/>
      <point x="288" y="0"/>
      <point x="311" y="0" type="curve" smooth="yes"/>
      <point x="469" y="0" type="line" smooth="yes"/>
      <point x="491" y="0"/>
      <point x="503" y="11"/>
      <point x="503" y="34" type="curve" smooth="yes"/>
      <point x="503" y="46"/>
      <point x="501" y="62"/>
      <point x="497" y="86" type="curve" smooth="yes"/>
      <point x="463" y="368" type="line" smooth="yes"/>
      <point x="459" y="400"/>
      <point x="458" y="407"/>
      <point x="458" y="418" type="curve" smooth="yes"/>
      <point x="458" y="430"/>
      <point x="458" y="437"/>
      <point x="463" y="469" type="curve" smooth="yes"/>
      <point x="497" y="714" type="line" smooth="yes"/>
      <point x="501" y="738"/>
      <point x="503" y="754"/>
      <point x="503" y="766" type="curve" smooth="yes"/>
      <point x="503" y="789"/>
      <point x="491" y="800"/>
      <point x="469" y="800" type="curve" smooth="yes"/>
      <point x="311" y="800" type="line" smooth="yes"/>
      <point x="288" y="800"/>
      <point x="277" y="789"/>
      <point x="277" y="766" type="curve" smooth="yes"/>
      <point x="277" y="577" type="line" smooth="yes"/>
      <point x="277" y="555"/>
      <point x="270" y="551"/>
      <point x="263" y="551" type="curve" smooth="yes"/>
      <point x="256" y="551"/>
      <point x="249" y="555"/>
      <point x="249" y="576" type="curve" smooth="yes"/>
      <point x="246" y="766" type="line" smooth="yes"/>
      <point x="246" y="789"/>
      <point x="223" y="800"/>
      <point x="200" y="800" type="curve" smooth="yes"/>
      <point x="46" y="800" type="line" smooth="yes"/>
      <point x="23" y="800"/>
      <point x="11" y="789"/>
      <point x="11" y="766" type="curve" smooth="yes"/>
      <point x="11" y="754"/>
      <point x="13" y="738"/>
      <point x="17" y="714" type="curve" smooth="yes"/>
      <point x="63" y="469" type="line" smooth="yes"/>
      <point x="69" y="437"/>
      <point x="69" y="430"/>
      <point x="69" y="418" type="curve" smooth="yes"/>
      <point x="69" y="407"/>
      <point x="69" y="400"/>
      <point x="63" y="368" type="curve" smooth="yes"/>
      <point x="17" y="86" type="line" smooth="yes"/>
      <point x="14" y="62"/>
      <point x="11" y="46"/>
      <point x="11" y="34" type="curve" smooth="yes"/>
      <point x="11" y="11"/>
      <point x="23" y="0"/>
    </contour>
  </outline>
</glyph>
<glyph name="Y" format="2">
  <advance width="560"/>
  <unicode hex="0059"/>
  <anchor x="280" y="800" name="top"/>
  <outline>
    <contour>
      <point x="194" y="0" type="curve" smooth="yes"/>
      <point x="366" y="0" type="line" smooth="yes"/>
      <point x="400" y="0"/>
      <point x="411" y="11"/>
      <point x="411" y="46" type="curve" smooth="yes"/>
      <point x="411" y="184" type="line" smooth="yes"/>
      <point x="411" y="198"/>
      <point x="414" y="214"/>
      <point x="417" y="226" type="curve" smooth="yes"/>
      <point x="536" y="694" type="line" smooth="yes"/>
      <point x="543" y="720"/>
      <point x="549" y="736"/>
      <point x="549" y="766" type="curve" smooth="yes"/>
      <point x="549" y="789"/>
      <point x="537" y="800"/>
      <point x="514" y="800" type="curve" smooth="yes"/>
      <point x="343" y="800" type="line" smooth="yes"/>
      <point x="311" y="800"/>
      <point x="297" y="789"/>
      <point x="297" y="766" type="curve" smooth="yes"/>
      <point x="297" y="477" type="line" smooth="yes"/>
      <point x="297" y="465"/>
      <point x="289" y="457"/>
      <point x="280" y="457" type="curve" smooth="yes"/>
      <point x="270" y="457"/>
      <point x="263" y="465"/>
      <point x="263" y="477" type="curve" smooth="yes"/>
      <point x="263" y="766" type="line" smooth="yes"/>
      <point x="263" y="789"/>
      <point x="249" y="800"/>
      <point x="217" y="800" type="curve" smooth="yes"/>
      <point x="46" y="800" type="line" smooth="yes"/>
      <point x="23" y="800"/>
      <point x="11" y="785"/>
      <point x="11" y="766" type="curve" smooth="yes"/>
      <point x="11" y="736"/>
      <point x="18" y="720"/>
      <point x="25" y="693" type="curve" smooth="yes"/>
      <point x="143" y="226" type="line" smooth="yes"/>
      <point x="146" y="214"/>
      <point x="149" y="198"/>
      <point x="149" y="184" type="curve" smooth="yes"/>
      <point x="149" y="46" type="line" smooth="yes"/>
      <point x="149" y="11"/>
      <point x="160" y="0"/>
    </contour>
  </outline>
</glyph>
<glyph name="Z" format="2">
  <advance width="491"/>
  <unicode hex="005A"/>
  <anchor x="257" y="800" name="top"/>
  <outline>
    <contour>
      <point x="57" y="0" type="curve" smooth="yes"/>
      <point x="434" y="0" type="line" smooth="yes"/>
      <point x="469" y="0"/>
      <point x="480" y="11"/>
      <point x="480" y="46" type="curve" smooth="yes"/>
      <point x="480" y="194" type="line" smooth="yes"/>
      <point x="480" y="229"/>
      <point x="469" y="240"/>
      <point x="433" y="240" type="curve" smooth="yes"/>
      <point x="334" y="240" type="line" smooth="yes"/>
      <point x="321" y="240"/>
      <point x="313" y="249"/>
      <point x="313" y="259" type="curve" smooth="yes"/>
      <point x="313" y="278"/>
      <point x="321" y="296"/>
      <point x="335" y="328" type="curve" smooth="yes"/>
      <point x="439" y="563" type="line" smooth="yes"/>
      <point x="465" y="624"/>
      <point x="480" y="653"/>
      <point x="480" y="692" type="curve" smooth="yes"/>
      <point x="480" y="754" type="line" smooth="yes"/>
      <point x="480" y="789"/>
      <point x="469" y="800"/>
      <point x="434" y="800" type="curve" smooth="yes"/>
      <point x="58" y="800" type="line" smooth="yes"/>
      <point x="23" y="800"/>
      <point x="11" y="789"/>
      <point x="11" y="754" type="curve" smooth="yes"/>
      <point x="11" y="606" type="line" smooth="yes"/>
      <point x="11" y="577"/>
      <point x="23" y="560"/>
      <point x="57" y="560" type="curve" smooth="yes"/>
      <point x="146" y="560" type="line" smooth="yes"/>
      <point x="173" y="560"/>
      <point x="181" y="557"/>
      <point x="181" y="544" type="curve" smooth="yes"/>
      <point x="181" y="527"/>
      <point x="171" y="511"/>
      <point x="165" y="496" type="curve" smooth="yes"/>
      <point x="55" y="258" type="line" smooth="yes"/>
      <point x="34" y="214"/>
      <point x="11" y="175"/>
      <point x="11" y="135" type="curve" smooth="yes"/>
      <point x="11" y="46" type="line" smooth="yes"/>
      <point x="11" y="11"/>
      <point x="23" y="0"/>
    </contour>
  </outline>
</glyph>
<glyph name="asciicircum" format="2">
  <advance width="377"/>
  <unicode hex="005E"/>
  <outline>
    <contour>
      <point x="57" y="543" type="curve" smooth="yes"/>
      <point x="74" y="543" type="line" smooth="yes"/>
      <point x="91" y="543"/>
      <point x="111" y="546"/>
      <point x="120" y="566" type="curve" smooth="yes"/>
      <point x="166" y="669" type="line" smooth="yes"/>
      <point x="170" y="680"/>
      <point x="182" y="679"/>
      <point x="189" y="679" type="curve" smooth="yes"/>
      <point x="195" y="679"/>
      <point x="208" y="678"/>
      <point x="211" y="670" type="curve" smooth="yes"/>
      <point x="257" y="566" type="line" smooth="yes"/>
      <point x="265" y="546"/>
      <point x="286" y="543"/>
      <point x="303" y="543" type="curve" smooth="yes"/>
      <point x="320" y="543" type="line" smooth="yes"/>
      <point x="335" y="543"/>
      <point x="343" y="549"/>
      <point x="343" y="559" type="curve" smooth="yes"/>
      <point x="343" y="573"/>
      <point x="338" y="584"/>
      <point x="331" y="606" type="curve" smooth="yes"/>
      <point x="285" y="743" type="line" smooth="yes"/>
      <point x="275" y="772"/>
      <point x="254" y="777"/>
      <point x="234" y="777" type="curve" smooth="yes"/>
      <point x="143" y="777" type="line" smooth="yes"/>
      <point x="123" y="777"/>
      <point x="97" y="772"/>
      <point x="88" y="743" type="curve" smooth="yes"/>
      <point x="45" y="606" type="line" smooth="yes"/>
      <point x="38" y="585"/>
      <point x="34" y="574"/>
      <point x="34" y="559" type="curve" smooth="yes"/>
      <point x="34" y="549"/>
      <point x="42" y="543"/>
    </contour>
  </outline>
</glyph>
<glyph name="yen" format="2">
  <advance width="572"/>
  <unicode hex="00A5"/>
  <outline>
    <contour>
      <point x="229" y="0" type="curve" smooth="yes"/>
      <point x="343" y="0" type="line" smooth="yes"/>
      <point x="377" y="0"/>
      <point x="389" y="11"/>
      <point x="389" y="46" type="curve" smooth="yes"/>
      <point x="389" y="321" type="line" smooth="yes"/>
      <point x="389" y="335"/>
      <point x="389" y="351"/>
      <point x="394" y="363" type="curve" smooth="yes"/>
      <point x="550" y="719" type="line" smooth="yes"/>
      <point x="557" y="734"/>
      <point x="560" y="748"/>
      <point x="560" y="766" type="curve" smooth="yes"/>
      <point x="560" y="789"/>
      <point x="549" y="800"/>
      <point x="526" y="800" type="curve" smooth="yes"/>
      <point x="406" y="800" type="line" smooth="yes"/>
      <point x="374" y="800"/>
      <point x="368" y="788"/>
      <point x="360" y="766" type="curve" smooth="yes"/>
      <point x="303" y="602" type="line" smooth="yes"/>
      <point x="299" y="591"/>
      <point x="295" y="583"/>
      <point x="286" y="583" type="curve" smooth="yes"/>
      <point x="275" y="583"/>
      <point x="272" y="591"/>
      <point x="269" y="602" type="curve" smooth="yes"/>
      <point x="211" y="766" type="line" smooth="yes"/>
      <point x="203" y="788"/>
      <point x="198" y="800"/>
      <point x="166" y="800" type="curve" smooth="yes"/>
      <point x="46" y="800" type="line" smooth="yes"/>
      <point x="23" y="800"/>
      <point x="11" y="785"/>
      <point x="11" y="766" type="curve" smooth="yes"/>
      <point x="11" y="748"/>
      <point x="15" y="734"/>
      <point x="22" y="719" type="curve" smooth="yes"/>
      <point x="177" y="363" type="line" smooth="yes"/>
      <point x="183" y="351"/>
      <point x="183" y="335"/>
      <point x="183" y="321" type="curve" smooth="yes"/>
      <point x="183" y="46" type="line" smooth="yes"/>
      <point x="183" y="11"/>
      <point x="194" y="0"/>
    </contour>
    <contour>
      <point x="57" y="126" type="curve" smooth="yes"/>
      <point x="514" y="126" type="line" smooth="yes"/>
      <point x="549" y="126"/>
      <point x="560" y="137"/>
      <point x="560" y="171" type="curve" smooth="yes"/>
      <point x="560" y="240" type="line" smooth="yes"/>
      <point x="560" y="274"/>
      <point x="549" y="286"/>
      <point x="514" y="286" type="curve" smooth="yes"/>
      <point x="57" y="286" type="line" smooth="yes"/>
      <point x="23" y="286"/>
      <point x="11" y="274"/>
      <point x="11" y="240" type="curve" smooth="yes"/>
      <point x="11" y="171" type="line" smooth="yes"/>
      <point x="11" y="137"/>
      <point x="23" y="126"/>
    </contour>
    <contour>
      <point x="57" y="363" type="curve" smooth="yes"/>
      <point x="514" y="363" type="line" smooth="yes"/>
      <point x="549" y="363"/>
      <point x="560" y="375"/>
      <point x="560" y="409" type="curve" smooth="yes"/>
      <point x="560" y="478" type="line" smooth="yes"/>
      <point x="560" y="512"/>
      <point x="549" y="523"/>
      <point x="514" y="523" type="curve" smooth="yes"/>
      <point x="57" y="523" type="line" smooth="yes"/>
      <point x="23" y="523"/>
      <point x="11" y="512"/>
      <point x="11" y="478" type="curve" smooth="yes"/>
      <point x="11" y="409" type="line" smooth="yes"/>
      <point x="11" y="375"/>
      <point x="23" y="363"/>
    </contour>
  </outline>
</glyph>
<glyph name="copyright" format="2">
  <advance width="892"/>
  <unicode hex="00A9"/>
  <outline>
    <contour>
      <point x="446" y="-11" type="curve" smooth="yes"/>
      <point x="673" y="-11"/>
      <point x="857" y="173"/>
      <point x="857" y="400" type="curve" smooth="yes"/>
      <point x="857" y="628"/>
      <point x="673" y="812"/>
      <point x="446" y="812" type="curve" smooth="yes"/>
      <point x="218" y="812"/>
      <point x="34" y="628"/>
      <point x="34" y="400" type="curve" smooth="yes"/>
      <point x="34" y="173"/>
      <point x="218" y="-11"/>
    </contour>
    <contour>
      <point x="446" y="64" type="curve" smooth="yes"/>
      <point x="259" y="64"/>
      <point x="109" y="215"/>
      <point x="109" y="400" type="curve" smooth="yes"/>
      <point x="109" y="585"/>
      <point x="259" y="737"/>
      <point x="446" y="737" type="curve" smooth="yes"/>
      <point x="631" y="737"/>
      <point x="783" y="585"/>
      <point x="783" y="400" type="curve" smooth="yes"/>
      <point x="783" y="215"/>
      <point x="631" y="64"/>
    </contour>
    <contour>
      <point x="446" y="167" type="curve" smooth="yes"/>
      <point x="576" y="167"/>
      <point x="674" y="234"/>
      <point x="674" y="330" type="curve" smooth="yes"/>
      <point x="674" y="351" type="line" smooth="yes"/>
      <point x="674" y="371"/>
      <point x="668" y="379"/>
      <point x="647" y="379" type="curve" smooth="yes"/>
      <point x="585" y="379" type="line" smooth="yes"/>
      <point x="565" y="379"/>
      <point x="558" y="371"/>
      <point x="558" y="351" type="curve" smooth="yes"/>
      <point x="558" y="344" type="line" smooth="yes"/>
      <point x="558" y="296"/>
      <point x="494" y="269"/>
      <point x="446" y="269" type="curve" smooth="yes"/>
      <point x="405" y="269"/>
      <point x="342" y="329"/>
      <point x="342" y="377" type="curve" smooth="yes"/>
      <point x="342" y="423" type="line" smooth="yes"/>
      <point x="342" y="471"/>
      <point x="405" y="557"/>
      <point x="446" y="557" type="curve" smooth="yes"/>
      <point x="494" y="557"/>
      <point x="558" y="529"/>
      <point x="558" y="481" type="curve" smooth="yes"/>
      <point x="558" y="474" type="line" smooth="yes"/>
      <point x="558" y="454"/>
      <point x="565" y="447"/>
      <point x="585" y="447" type="curve" smooth="yes"/>
      <point x="647" y="447" type="line" smooth="yes"/>
      <point x="668" y="447"/>
      <point x="674" y="454"/>
      <point x="674" y="474" type="curve" smooth="yes"/>
      <point x="674" y="495" type="line" smooth="yes"/>
      <point x="674" y="605"/>
      <point x="576" y="660"/>
      <point x="446" y="660" type="curve" smooth="yes"/>
      <point x="317" y="660"/>
      <point x="217" y="546"/>
      <point x="217" y="416" type="curve" smooth="yes"/>
      <point x="217" y="384" type="line" smooth="yes"/>
      <point x="217" y="254"/>
      <point x="315" y="167"/>
    </contour>
  </outline>
</glyph>
<glyph name="acute" format="2">
  <advance width="686"/>
  <unicode hex="00B4"/>
  <outline>
    <contour>
      <point x="98" y="680" type="curve" smooth="yes"/>
      <point x="110" y="680" type="line" smooth="yes"/>
      <point x="125" y="680"/>
      <point x="133" y="681"/>
      <point x="145" y="692" type="curve" smooth="yes"/>
      <point x="270" y="793" type="line" smooth="yes"/>
      <point x="273" y="797"/>
      <point x="275" y="801"/>
      <point x="275" y="807" type="curve" smooth="yes"/>
      <point x="275" y="821"/>
      <point x="267" y="829"/>
      <point x="254" y="829" type="curve" smooth="yes"/>
      <point x="207" y="829" type="line" smooth="yes"/>
      <point x="184" y="829"/>
      <point x="177" y="823"/>
      <point x="165" y="808" type="curve" smooth="yes"/>
      <point x="86" y="713" type="line" smooth="yes"/>
      <point x="82" y="710"/>
      <point x="80" y="704"/>
      <point x="80" y="698" type="curve" smooth="yes"/>
      <point x="80" y="687"/>
      <point x="87" y="680"/>
    </contour>
  </outline>
</glyph>
<glyph name="paragraph" format="2">
  <advance width="663"/>
  <unicode hex="00B6"/>
  <outline>
    <contour>
      <point x="297" y="0" type="curve" smooth="yes"/>
      <point x="309" y="0" type="line" smooth="yes"/>
      <point x="343" y="0"/>
      <point x="354" y="11"/>
      <point x="354" y="46" type="curve" smooth="yes"/>
      <point x="354" y="754" type="line" smooth="yes"/>
      <point x="354" y="789"/>
      <point x="343" y="800"/>
      <point x="309" y="800" type="curve" smooth="yes"/>
      <point x="206" y="800" type="line" smooth="yes"/>
      <point x="103" y="800"/>
      <point x="23" y="732"/>
      <point x="23" y="583" type="curve" smooth="yes"/>
      <point x="23" y="503" type="line" smooth="yes"/>
      <point x="23" y="354"/>
      <point x="103" y="297"/>
      <point x="206" y="297" type="curve" smooth="yes"/>
      <point x="229" y="297" type="line" smooth="yes"/>
      <point x="246" y="297"/>
      <point x="251" y="291"/>
      <point x="251" y="274" type="curve" smooth="yes"/>
      <point x="251" y="46" type="line" smooth="yes"/>
      <point x="251" y="11"/>
      <point x="263" y="0"/>
    </contour>
    <contour>
      <point x="480" y="0" type="curve" smooth="yes"/>
      <point x="594" y="0" type="line" smooth="yes"/>
      <point x="629" y="0"/>
      <point x="640" y="11"/>
      <point x="640" y="46" type="curve" smooth="yes"/>
      <point x="640" y="754" type="line" smooth="yes"/>
      <point x="640" y="789"/>
      <point x="629" y="800"/>
      <point x="594" y="800" type="curve" smooth="yes"/>
      <point x="480" y="800" type="line" smooth="yes"/>
      <point x="446" y="800"/>
      <point x="434" y="789"/>
      <point x="434" y="754" type="curve" smooth="yes"/>
      <point x="434" y="46" type="line" smooth="yes"/>
      <point x="434" y="11"/>
      <point x="446" y="0"/>
    </contour>
  </outline>
</glyph>
<glyph name="cedilla" format="2">
  <advance width="686"/>
  <unicode hex="00B8"/>
  <outline>
    <contour>
      <point x="267" y="-233" type="curve" smooth="yes"/>
      <point x="379" y="-233"/>
      <point x="441" y="-202"/>
      <point x="441" y="-139" type="curve" smooth="yes"/>
      <point x="441" y="-78"/>
      <point x="391" y="-18"/>
      <point x="329" y="-18" type="curve" smooth="yes"/>
      <point x="306" y="-18" type="line" smooth="yes"/>
      <point x="287" y="-18"/>
      <point x="274" y="-26"/>
      <point x="274" y="-40" type="curve" smooth="yes"/>
      <point x="274" y="-55"/>
      <point x="283" y="-61"/>
      <point x="310" y="-61" type="curve" smooth="yes"/>
      <point x="326" y="-61"/>
      <point x="336" y="-74"/>
      <point x="336" y="-91" type="curve" smooth="yes"/>
      <point x="336" y="-114"/>
      <point x="304" y="-129"/>
      <point x="267" y="-129" type="curve" smooth="yes"/>
      <point x="251" y="-129"/>
      <point x="245" y="-138"/>
      <point x="245" y="-152" type="curve" smooth="yes"/>
      <point x="245" y="-210" type="line" smooth="yes"/>
      <point x="245" y="-222"/>
      <point x="251" y="-233"/>
    </contour>
  </outline>
</glyph>
<glyph name="Eth" format="2">
  <advance width="585"/>
  <unicode hex="00D0"/>
  <outline>
    <contour>
      <point x="109" y="0" type="curve" smooth="yes"/>
      <point x="349" y="0" type="line" smooth="yes"/>
      <point x="497" y="0"/>
      <point x="566" y="69"/>
      <point x="566" y="217" type="curve" smooth="yes"/>
      <point x="566" y="583" type="line" smooth="yes"/>
      <point x="566" y="732"/>
      <point x="474" y="800"/>
      <point x="326" y="800" type="curve" smooth="yes"/>
      <point x="109" y="800" type="line" smooth="yes"/>
      <point x="74" y="800"/>
      <point x="63" y="789"/>
      <point x="63" y="754" type="curve" smooth="yes"/>
      <point x="63" y="511" type="line" smooth="yes"/>
      <point x="63" y="494"/>
      <point x="57" y="488"/>
      <point x="40" y="488" type="curve" smooth="yes"/>
      <point x="34" y="488" type="line" smooth="yes"/>
      <point x="17" y="488"/>
      <point x="11" y="482"/>
      <point x="11" y="465" type="curve" smooth="yes"/>
      <point x="11" y="351" type="line" smooth="yes"/>
      <point x="11" y="334"/>
      <point x="17" y="328"/>
      <point x="34" y="328" type="curve" smooth="yes"/>
      <point x="40" y="328" type="line" smooth="yes"/>
      <point x="57" y="328"/>
      <point x="63" y="322"/>
      <point x="63" y="305" type="curve" smooth="yes"/>
      <point x="63" y="46" type="line" smooth="yes"/>
      <point x="63" y="11"/>
      <point x="74" y="0"/>
    </contour>
    <contour>
      <point x="269" y="194" type="curve" smooth="yes"/>
      <point x="269" y="305" type="line" smooth="yes"/>
      <point x="269" y="322"/>
      <point x="274" y="328"/>
      <point x="291" y="328" type="curve" smooth="yes"/>
      <point x="297" y="328" type="line" smooth="yes"/>
      <point x="314" y="328"/>
      <point x="320" y="334"/>
      <point x="320" y="351" type="curve" smooth="yes"/>
      <point x="320" y="465" type="line" smooth="yes"/>
      <point x="320" y="482"/>
      <point x="314" y="488"/>
      <point x="297" y="488" type="curve" smooth="yes"/>
      <point x="291" y="488" type="line" smooth="yes"/>
      <point x="274" y="488"/>
      <point x="269" y="494"/>
      <point x="269" y="511" type="curve" smooth="yes"/>
      <point x="269" y="606" type="line" smooth="yes"/>
      <point x="269" y="623"/>
      <point x="274" y="629"/>
      <point x="291" y="629" type="curve" smooth="yes"/>
      <point x="314" y="629" type="line" smooth="yes"/>
      <point x="349" y="629"/>
      <point x="360" y="617"/>
      <point x="360" y="572" type="curve" smooth="yes"/>
      <point x="360" y="229" type="line" smooth="yes"/>
      <point x="360" y="183"/>
      <point x="349" y="171"/>
      <point x="314" y="171" type="curve" smooth="yes"/>
      <point x="291" y="171" type="line" smooth="yes"/>
      <point x="274" y="171"/>
      <point x="269" y="177"/>
    </contour>
  </outline>
</glyph>
<glyph name="Tcedilla" format="2">
  <advance width="434"/>
  <unicode hex="0162"/>
  <outline>
    <contour>
      <point x="160" y="0" type="curve" smooth="yes"/>
      <point x="208" y="0"/>
      <point x="229" y="-33"/>
      <point x="229" y="-57" type="curve" smooth="yes"/>
      <point x="229" y="-80"/>
      <point x="197" y="-95"/>
      <point x="160" y="-95" type="curve" smooth="yes"/>
      <point x="144" y="-95"/>
      <point x="137" y="-104"/>
      <point x="137" y="-118" type="curve" smooth="yes"/>
      <point x="137" y="-176" type="line" smooth="yes"/>
      <point x="137" y="-187"/>
      <point x="144" y="-199"/>
      <point x="160" y="-199" type="curve" smooth="yes"/>
      <point x="272" y="-199"/>
      <point x="334" y="-168"/>
      <point x="334" y="-105" type="curve" smooth="yes"/>
      <point x="334" y="-43"/>
      <point x="258" y="-34"/>
      <point x="258" y="-11" type="curve" smooth="yes"/>
      <point x="258" y="-5"/>
      <point x="263" y="0"/>
      <point x="274" y="0" type="curve" smooth="yes"/>
      <point x="309" y="0"/>
      <point x="320" y="11"/>
      <point x="320" y="46" type="curve" smooth="yes"/>
      <point x="320" y="606" type="line" smooth="yes"/>
      <point x="320" y="623"/>
      <point x="326" y="629"/>
      <point x="343" y="629" type="curve" smooth="yes"/>
      <point x="377" y="629" type="line" smooth="yes"/>
      <point x="411" y="629"/>
      <point x="423" y="640"/>
      <point x="423" y="674" type="curve" smooth="yes"/>
      <point x="423" y="754" type="line" smooth="yes"/>
      <point x="423" y="789"/>
      <point x="411" y="800"/>
      <point x="377" y="800" type="curve" smooth="yes"/>
      <point x="57" y="800" type="line" smooth="yes"/>
      <point x="22" y="800"/>
      <point x="11" y="789"/>
      <point x="11" y="754" type="curve" smooth="yes"/>
      <point x="11" y="674" type="line" smooth="yes"/>
      <point x="11" y="646"/>
      <point x="23" y="629"/>
      <point x="57" y="629" type="curve" smooth="yes"/>
      <point x="91" y="629" type="line" smooth="yes"/>
      <point x="109" y="629"/>
      <point x="114" y="623"/>
      <point x="114" y="606" type="curve" smooth="yes"/>
      <point x="114" y="46" type="line" smooth="yes"/>
      <point x="114" y="11"/>
      <point x="126" y="0"/>
    </contour>
  </outline>
</glyph>
<glyph name="circumflex" format="2">
  <advance width="686"/>
  <unicode hex="02C6"/>
  <outline>
    <contour>
      <point x="96" y="680" type="curve" smooth="yes"/>
      <point x="115" y="680" type="line" smooth="yes"/>
      <point x="125" y="680"/>
      <point x="138" y="684"/>
      <point x="144" y="688" type="curve" smooth="yes"/>
      <point x="235" y="757" type="line"/>
      <point x="327" y="688" type="line" smooth="yes"/>
      <point x="333" y="684"/>
      <point x="346" y="680"/>
      <point x="355" y="680" type="curve" smooth="yes"/>
      <point x="375" y="680" type="line" smooth="yes"/>
      <point x="386" y="680"/>
      <point x="391" y="684"/>
      <point x="391" y="693" type="curve" smooth="yes"/>
      <point x="391" y="700"/>
      <point x="386" y="706"/>
      <point x="377" y="716" type="curve" smooth="yes"/>
      <point x="278" y="813" type="line" smooth="yes"/>
      <point x="262" y="829"/>
      <point x="253" y="829"/>
      <point x="241" y="829" type="curve" smooth="yes"/>
      <point x="230" y="829" type="line" smooth="yes"/>
      <point x="218" y="829"/>
      <point x="209" y="829"/>
      <point x="193" y="813" type="curve" smooth="yes"/>
      <point x="94" y="716" type="line" smooth="yes"/>
      <point x="85" y="706"/>
      <point x="80" y="700"/>
      <point x="80" y="693" type="curve" smooth="yes"/>
      <point x="80" y="684"/>
      <point x="85" y="680"/>
    </contour>
  </outline>
</glyph>
<glyph name="tilde" format="2">
  <advance width="686"/>
  <unicode hex="02DC"/>
  <outline>
    <contour>
      <point x="271" y="674" type="curve" smooth="yes"/>
      <point x="317" y="674"/>
      <point x="353" y="716"/>
      <point x="353" y="759" type="curve" smooth="yes"/>
      <point x="353" y="768"/>
      <point x="346" y="777"/>
      <point x="335" y="777" type="curve" smooth="yes"/>
      <point x="312" y="777" type="line" smooth="yes"/>
      <point x="287" y="777"/>
      <point x="293" y="743"/>
      <point x="265" y="743" type="curve" smooth="yes"/>
      <point x="232" y="743"/>
      <point x="215" y="782"/>
      <point x="161" y="782" type="curve" smooth="yes"/>
      <point x="114" y="782"/>
      <point x="80" y="742"/>
      <point x="80" y="698" type="curve" smooth="yes"/>
      <point x="80" y="689"/>
      <point x="87" y="680"/>
      <point x="98" y="680" type="curve" smooth="yes"/>
      <point x="121" y="680" type="line" smooth="yes"/>
      <point x="145" y="680"/>
      <point x="142" y="713"/>
      <point x="168" y="713" type="curve" smooth="yes"/>
      <point x="200" y="713"/>
      <point x="218" y="674"/>
    </contour>
  </outline>
</glyph>
<glyph name="commaturnedabovecomb" format="2">
  <unicode hex="0312"/>
  <anchor x="114" y="800" name="_top"/>
  <outline>
    <contour>
      <point x="171" y="1040" type="curve" smooth="yes"/>
      <point x="143" y="1040" type="line" smooth="yes"/>
      <point x="126" y="1040"/>
      <point x="120" y="1046"/>
      <point x="120" y="1063" type="curve" smooth="yes"/>
      <point x="120" y="1079"/>
      <point x="128" y="1097"/>
      <point x="150" y="1112" type="curve" smooth="yes"/>
      <point x="163" y="1121"/>
      <point x="177" y="1128"/>
      <point x="177" y="1148" type="curve" smooth="yes"/>
      <point x="177" y="1166" type="line" smooth="yes"/>
      <point x="177" y="1181"/>
      <point x="170" y="1189"/>
      <point x="154" y="1189" type="curve" smooth="yes"/>
      <point x="71" y="1189"/>
      <point x="11" y="1081"/>
      <point x="11" y="994" type="curve" smooth="yes"/>
      <point x="11" y="892" type="line" smooth="yes"/>
      <point x="11" y="857"/>
      <point x="23" y="846"/>
      <point x="57" y="846" type="curve" smooth="yes"/>
      <point x="171" y="846" type="line" smooth="yes"/>
      <point x="206" y="846"/>
      <point x="217" y="857"/>
      <point x="217" y="892" type="curve" smooth="yes"/>
      <point x="217" y="994" type="line" smooth="yes"/>
      <point x="217" y="1029"/>
      <point x="206" y="1040"/>
    </contour>
  </outline>
</glyph>
<glyph name="fraction" format="2">
  <advance width="686"/>
  <unicode hex="2044"/>
  <outline>
    <contour>
      <point x="58" y="0" type="curve" smooth="yes"/>
      <point x="115" y="0" type="line" smooth="yes"/>
      <point x="150" y="0"/>
      <point x="163" y="17"/>
      <point x="184" y="46" type="curve" smooth="yes"/>
      <point x="658" y="729" type="line" smooth="yes"/>
      <point x="669" y="744"/>
      <point x="674" y="756"/>
      <point x="674" y="767" type="curve" smooth="yes"/>
      <point x="674" y="792"/>
      <point x="657" y="800"/>
      <point x="628" y="800" type="curve" smooth="yes"/>
      <point x="570" y="800" type="line" smooth="yes"/>
      <point x="536" y="800"/>
      <point x="521" y="783"/>
      <point x="502" y="754" type="curve" smooth="yes"/>
      <point x="33" y="80" type="line" smooth="yes"/>
      <point x="19" y="59"/>
      <point x="11" y="46"/>
      <point x="11" y="33" type="curve" smooth="yes"/>
      <point x="11" y="9"/>
      <point x="29" y="0"/>
    </contour>
  </outline>
</glyph>
<glyph name="brevecomb.case" format="2">
  <anchor x="137" y="800" name="_top"/>
  <outline>
    <contour>
      <point x="137" y="834" type="curve" smooth="yes"/>
      <point x="229" y="834"/>
      <point x="274" y="880"/>
      <point x="274" y="949" type="curve" smooth="yes"/>
      <point x="274" y="966"/>
      <point x="269" y="972"/>
      <point x="251" y="972" type="curve" smooth="yes"/>
      <point x="201" y="972" type="line" smooth="yes"/>
      <point x="184" y="972"/>
      <point x="178" y="966"/>
      <point x="178" y="949" type="curve" smooth="yes"/>
      <point x="178" y="926"/>
      <point x="160" y="914"/>
      <point x="137" y="914" type="curve" smooth="yes"/>
      <point x="114" y="914"/>
      <point x="96" y="926"/>
      <point x="96" y="949" type="curve" smooth="yes"/>
      <point x="96" y="966"/>
      <point x="90" y="972"/>
      <point x="73" y="972" type="curve" smooth="yes"/>
      <point x="23" y="972" type="line" smooth="yes"/>
      <point x="6" y="972"/>
      <point x="0" y="966"/>
      <point x="0" y="949" type="curve" smooth="yes"/>
      <point x="0" y="880"/>
      <point x="46" y="834"/>
    </contour>
  </outline>
</glyph>
<glyph name="circumflexcomb.case" format="2">
  <anchor x="149" y="800" name="_top"/>
  <anchor x="149" y="994" name="top"/>
  <outline>
    <contour>
      <point x="17" y="846" type="curve" smooth="yes"/>
      <point x="34" y="846" type="line" smooth="yes"/>
      <point x="51" y="846"/>
      <point x="61" y="856"/>
      <point x="80" y="869" type="curve" smooth="yes"/>
      <point x="126" y="897" type="line" smooth="yes"/>
      <point x="136" y="904"/>
      <point x="142" y="908"/>
      <point x="149" y="908" type="curve" smooth="yes"/>
      <point x="155" y="908"/>
      <point x="163" y="904"/>
      <point x="171" y="898" type="curve" smooth="yes"/>
      <point x="217" y="869" type="line" smooth="yes"/>
      <point x="235" y="857"/>
      <point x="246" y="846"/>
      <point x="263" y="846" type="curve" smooth="yes"/>
      <point x="280" y="846" type="line" smooth="yes"/>
      <point x="295" y="846"/>
      <point x="303" y="852"/>
      <point x="303" y="862" type="curve" smooth="yes"/>
      <point x="303" y="876"/>
      <point x="294" y="890"/>
      <point x="280" y="909" type="curve" smooth="yes"/>
      <point x="233" y="972" type="line" smooth="yes"/>
      <point x="215" y="996"/>
      <point x="202" y="1006"/>
      <point x="183" y="1006" type="curve" smooth="yes"/>
      <point x="114" y="1006" type="line" smooth="yes"/>
      <point x="95" y="1006"/>
      <point x="75" y="996"/>
      <point x="59" y="972" type="curve" smooth="yes"/>
      <point x="16" y="909" type="line" smooth="yes"/>
      <point x="3" y="890"/>
      <point x="-6" y="877"/>
      <point x="-6" y="862" type="curve" smooth="yes"/>
      <point x="-6" y="852"/>
      <point x="2" y="846"/>
    </contour>
  </outline>
</glyph>
<glyph name="commaaccentcomb.case" format="2">
  <anchor x="343" y="-1" name="_bottom"/>
  <outline>
    <contour>
      <point x="286" y="-257" type="curve" smooth="yes"/>
      <point x="314" y="-257" type="line" smooth="yes"/>
      <point x="331" y="-257"/>
      <point x="337" y="-263"/>
      <point x="337" y="-280" type="curve" smooth="yes"/>
      <point x="337" y="-296"/>
      <point x="329" y="-314"/>
      <point x="307" y="-329" type="curve" smooth="yes"/>
      <point x="294" y="-338"/>
      <point x="280" y="-345"/>
      <point x="280" y="-365" type="curve" smooth="yes"/>
      <point x="280" y="-383" type="line" smooth="yes"/>
      <point x="280" y="-398"/>
      <point x="287" y="-406"/>
      <point x="303" y="-406" type="curve" smooth="yes"/>
      <point x="386" y="-406"/>
      <point x="446" y="-298"/>
      <point x="446" y="-211" type="curve" smooth="yes"/>
      <point x="446" y="-109" type="line" smooth="yes"/>
      <point x="446" y="-74"/>
      <point x="434" y="-63"/>
      <point x="400" y="-63" type="curve" smooth="yes"/>
      <point x="286" y="-63" type="line" smooth="yes"/>
      <point x="251" y="-63"/>
      <point x="240" y="-74"/>
      <point x="240" y="-109" type="curve" smooth="yes"/>
      <point x="240" y="-211" type="line" smooth="yes"/>
      <point x="240" y="-246"/>
      <point x="251" y="-257"/>
    </contour>
  </outline>
</glyph>
<glyph name="dieresiscomb.case" format="2">
  <anchor x="146" y="800" name="_top"/>
  <anchor x="146" y="973" name="top"/>
  <outline>
    <contour>
      <point x="192" y="846" type="curve" smooth="yes"/>
      <point x="258" y="846" type="line" smooth="yes"/>
      <point x="273" y="846"/>
      <point x="285" y="856"/>
      <point x="285" y="871" type="curve" smooth="yes"/>
      <point x="285" y="949" type="line" smooth="yes"/>
      <point x="285" y="964"/>
      <point x="273" y="975"/>
      <point x="258" y="975" type="curve" smooth="yes"/>
      <point x="192" y="975" type="line" smooth="yes"/>
      <point x="177" y="975"/>
      <point x="167" y="964"/>
      <point x="167" y="949" type="curve" smooth="yes"/>
      <point x="167" y="871" type="line" smooth="yes"/>
      <point x="167" y="856"/>
      <point x="177" y="846"/>
    </contour>
    <contour>
      <point x="33" y="846" type="curve" smooth="yes"/>
      <point x="99" y="846" type="line" smooth="yes"/>
      <point x="114" y="846"/>
      <point x="126" y="856"/>
      <point x="126" y="871" type="curve" smooth="yes"/>
      <point x="126" y="949" type="line" smooth="yes"/>
      <point x="126" y="964"/>
      <point x="114" y="975"/>
      <point x="99" y="975" type="curve" smooth="yes"/>
      <point x="33" y="975" type="line" smooth="yes"/>
      <point x="18" y="975"/>
      <point x="8" y="964"/>
      <point x="8" y="949" type="curve" smooth="yes"/>
      <point x="8" y="871" type="line" smooth="yes"/>
      <point x="8" y="856"/>
      <point x="18" y="846"/>
    </contour>
  </outline>
</glyph>
<glyph name="hungarumlautcomb.case" format="2">
  <anchor x="137" y="800" name="_top"/>
  <outline>
    <contour>
      <point x="-19" y="846" type="curve" smooth="yes"/>
      <point x="61" y="846" type="line" smooth="yes"/>
      <point x="72" y="846"/>
      <point x="83" y="845"/>
      <point x="103" y="869" type="curve" smooth="yes"/>
      <point x="167" y="950" type="line" smooth="yes"/>
      <point x="176" y="962"/>
      <point x="183" y="970"/>
      <point x="183" y="982" type="curve" smooth="yes"/>
      <point x="183" y="998"/>
      <point x="171" y="1005"/>
      <point x="149" y="1005" type="curve" smooth="yes"/>
      <point x="49" y="1005" type="line" smooth="yes"/>
      <point x="26" y="1005"/>
      <point x="21" y="1006"/>
      <point x="3" y="970" type="curve" smooth="yes"/>
      <point x="-31" y="898" type="line" smooth="yes"/>
      <point x="-39" y="881"/>
      <point x="-42" y="874"/>
      <point x="-42" y="869" type="curve" smooth="yes"/>
      <point x="-42" y="857"/>
      <point x="-37" y="846"/>
    </contour>
    <contour>
      <point x="209" y="846" type="curve" smooth="yes"/>
      <point x="289" y="846" type="line" smooth="yes"/>
      <point x="301" y="846"/>
      <point x="312" y="845"/>
      <point x="331" y="869" type="curve" smooth="yes"/>
      <point x="395" y="950" type="line" smooth="yes"/>
      <point x="405" y="962"/>
      <point x="411" y="970"/>
      <point x="411" y="982" type="curve" smooth="yes"/>
      <point x="411" y="998"/>
      <point x="400" y="1005"/>
      <point x="377" y="1005" type="curve" smooth="yes"/>
      <point x="278" y="1005" type="line" smooth="yes"/>
      <point x="255" y="1005"/>
      <point x="249" y="1006"/>
      <point x="232" y="970" type="curve" smooth="yes"/>
      <point x="198" y="898" type="line" smooth="yes"/>
      <point x="190" y="881"/>
      <point x="186" y="874"/>
      <point x="186" y="869" type="curve" smooth="yes"/>
      <point x="186" y="857"/>
      <point x="192" y="846"/>
    </contour>
  </outline>
</glyph>
